<mxfile host="app.diagrams.net" modified="2022-05-01T14:12:00.188Z" agent="5.0 (Windows NT 10.0; Win64; x64) AppleWebKit/537.36 (KHTML, like Gecko) Chrome/101.0.4951.41 Safari/537.36 Edg/101.0.1210.32" etag="STPreclq_iwc7fAzjbpy" version="17.5.0" type="github">
  <diagram id="sAaJkn2p8dNaO9sGVNvt" name="Page-1">
    <mxGraphModel dx="6036" dy="-1522" grid="1" gridSize="10" guides="1" tooltips="1" connect="1" arrows="1" fold="1" page="1" pageScale="1" pageWidth="827" pageHeight="1169" math="0" shadow="0">
      <root>
        <mxCell id="0" />
        <mxCell id="1" parent="0" />
        <mxCell id="lb9ZCilv8jvgpDcWReZ2-1" value="" style="endArrow=classic;html=1;rounded=0;fontSize=17;" edge="1" parent="1">
          <mxGeometry width="50" height="50" relative="1" as="geometry">
            <mxPoint x="199.81" y="5990" as="sourcePoint" />
            <mxPoint x="199.56" y="4200" as="targetPoint" />
          </mxGeometry>
        </mxCell>
        <mxCell id="lb9ZCilv8jvgpDcWReZ2-2" value="" style="endArrow=classic;html=1;rounded=0;fontSize=17;" edge="1" parent="1">
          <mxGeometry width="50" height="50" relative="1" as="geometry">
            <mxPoint x="200" y="4270" as="sourcePoint" />
            <mxPoint x="3130" y="4270" as="targetPoint" />
          </mxGeometry>
        </mxCell>
        <mxCell id="lb9ZCilv8jvgpDcWReZ2-3" value="" style="endArrow=classic;html=1;rounded=0;fontSize=17;" edge="1" parent="1">
          <mxGeometry width="50" height="50" relative="1" as="geometry">
            <mxPoint x="200" y="4350" as="sourcePoint" />
            <mxPoint x="3130" y="4350" as="targetPoint" />
          </mxGeometry>
        </mxCell>
        <mxCell id="lb9ZCilv8jvgpDcWReZ2-4" value="" style="endArrow=classic;html=1;rounded=0;fontSize=17;" edge="1" parent="1">
          <mxGeometry width="50" height="50" relative="1" as="geometry">
            <mxPoint x="200" y="4430" as="sourcePoint" />
            <mxPoint x="3140" y="4430" as="targetPoint" />
          </mxGeometry>
        </mxCell>
        <mxCell id="lb9ZCilv8jvgpDcWReZ2-5" value="" style="endArrow=classic;html=1;rounded=0;fontSize=17;" edge="1" parent="1">
          <mxGeometry width="50" height="50" relative="1" as="geometry">
            <mxPoint x="200" y="4510" as="sourcePoint" />
            <mxPoint x="3140" y="4510" as="targetPoint" />
          </mxGeometry>
        </mxCell>
        <mxCell id="lb9ZCilv8jvgpDcWReZ2-6" value="" style="endArrow=classic;html=1;rounded=0;fontSize=17;" edge="1" parent="1">
          <mxGeometry width="50" height="50" relative="1" as="geometry">
            <mxPoint x="200" y="4590" as="sourcePoint" />
            <mxPoint x="3140" y="4590" as="targetPoint" />
          </mxGeometry>
        </mxCell>
        <mxCell id="lb9ZCilv8jvgpDcWReZ2-7" value="" style="endArrow=classic;html=1;rounded=0;fontSize=17;" edge="1" parent="1">
          <mxGeometry width="50" height="50" relative="1" as="geometry">
            <mxPoint x="200" y="4670" as="sourcePoint" />
            <mxPoint x="3140" y="4670" as="targetPoint" />
          </mxGeometry>
        </mxCell>
        <mxCell id="lb9ZCilv8jvgpDcWReZ2-8" value="" style="endArrow=classic;html=1;rounded=0;fontSize=17;" edge="1" parent="1">
          <mxGeometry width="50" height="50" relative="1" as="geometry">
            <mxPoint x="200" y="4750" as="sourcePoint" />
            <mxPoint x="3302.8571428571427" y="4750" as="targetPoint" />
          </mxGeometry>
        </mxCell>
        <mxCell id="lb9ZCilv8jvgpDcWReZ2-9" value="" style="endArrow=classic;html=1;rounded=0;fontSize=17;" edge="1" parent="1">
          <mxGeometry width="50" height="50" relative="1" as="geometry">
            <mxPoint x="200" y="4830" as="sourcePoint" />
            <mxPoint x="3140" y="4830" as="targetPoint" />
          </mxGeometry>
        </mxCell>
        <mxCell id="lb9ZCilv8jvgpDcWReZ2-10" value="" style="endArrow=classic;html=1;rounded=0;fontSize=17;" edge="1" parent="1">
          <mxGeometry width="50" height="50" relative="1" as="geometry">
            <mxPoint x="200" y="4910" as="sourcePoint" />
            <mxPoint x="3140" y="4910" as="targetPoint" />
          </mxGeometry>
        </mxCell>
        <mxCell id="lb9ZCilv8jvgpDcWReZ2-11" value="MI" style="text;html=1;strokeColor=none;fillColor=none;align=center;verticalAlign=middle;whiteSpace=wrap;rounded=0;" vertex="1" parent="1">
          <mxGeometry x="140" y="4240" width="60" height="30" as="geometry" />
        </mxCell>
        <mxCell id="lb9ZCilv8jvgpDcWReZ2-12" value="UI" style="text;html=1;strokeColor=none;fillColor=none;align=center;verticalAlign=middle;whiteSpace=wrap;rounded=0;" vertex="1" parent="1">
          <mxGeometry x="140" y="4320" width="60" height="30" as="geometry" />
        </mxCell>
        <mxCell id="lb9ZCilv8jvgpDcWReZ2-13" value="UK" style="text;html=1;strokeColor=none;fillColor=none;align=center;verticalAlign=middle;whiteSpace=wrap;rounded=0;" vertex="1" parent="1">
          <mxGeometry x="140" y="4400" width="60" height="30" as="geometry" />
        </mxCell>
        <mxCell id="lb9ZCilv8jvgpDcWReZ2-14" value="CU" style="text;html=1;strokeColor=none;fillColor=none;align=center;verticalAlign=middle;whiteSpace=wrap;rounded=0;" vertex="1" parent="1">
          <mxGeometry x="140" y="4480" width="60" height="30" as="geometry" />
        </mxCell>
        <mxCell id="lb9ZCilv8jvgpDcWReZ2-15" value="UG" style="text;html=1;strokeColor=none;fillColor=none;align=center;verticalAlign=middle;whiteSpace=wrap;rounded=0;" vertex="1" parent="1">
          <mxGeometry x="140" y="4560" width="60" height="30" as="geometry" />
        </mxCell>
        <mxCell id="lb9ZCilv8jvgpDcWReZ2-16" value="UL" style="text;html=1;strokeColor=none;fillColor=none;align=center;verticalAlign=middle;whiteSpace=wrap;rounded=0;" vertex="1" parent="1">
          <mxGeometry x="140" y="4640" width="60" height="30" as="geometry" />
        </mxCell>
        <mxCell id="lb9ZCilv8jvgpDcWReZ2-17" value="MD1" style="text;html=1;strokeColor=none;fillColor=none;align=center;verticalAlign=middle;whiteSpace=wrap;rounded=0;" vertex="1" parent="1">
          <mxGeometry x="140" y="4720" width="60" height="30" as="geometry" />
        </mxCell>
        <mxCell id="lb9ZCilv8jvgpDcWReZ2-18" value="MD2" style="text;html=1;strokeColor=none;fillColor=none;align=center;verticalAlign=middle;whiteSpace=wrap;rounded=0;" vertex="1" parent="1">
          <mxGeometry x="140" y="4800" width="60" height="30" as="geometry" />
        </mxCell>
        <mxCell id="lb9ZCilv8jvgpDcWReZ2-19" value="MD3" style="text;html=1;strokeColor=none;fillColor=none;align=center;verticalAlign=middle;whiteSpace=wrap;rounded=0;" vertex="1" parent="1">
          <mxGeometry x="140" y="4880" width="60" height="30" as="geometry" />
        </mxCell>
        <mxCell id="lb9ZCilv8jvgpDcWReZ2-20" value="" style="endArrow=classic;html=1;rounded=0;fontSize=17;" edge="1" parent="1">
          <mxGeometry width="50" height="50" relative="1" as="geometry">
            <mxPoint x="200" y="4990" as="sourcePoint" />
            <mxPoint x="3140" y="4990" as="targetPoint" />
          </mxGeometry>
        </mxCell>
        <mxCell id="lb9ZCilv8jvgpDcWReZ2-21" value="" style="endArrow=classic;html=1;rounded=0;fontSize=17;" edge="1" parent="1">
          <mxGeometry width="50" height="50" relative="1" as="geometry">
            <mxPoint x="200" y="5070" as="sourcePoint" />
            <mxPoint x="3130" y="5070" as="targetPoint" />
          </mxGeometry>
        </mxCell>
        <mxCell id="lb9ZCilv8jvgpDcWReZ2-22" value="" style="endArrow=classic;html=1;rounded=0;fontSize=17;" edge="1" parent="1">
          <mxGeometry width="50" height="50" relative="1" as="geometry">
            <mxPoint x="210" y="5150" as="sourcePoint" />
            <mxPoint x="3150" y="5150" as="targetPoint" />
          </mxGeometry>
        </mxCell>
        <mxCell id="lb9ZCilv8jvgpDcWReZ2-23" value="" style="endArrow=classic;html=1;rounded=0;fontSize=17;" edge="1" parent="1">
          <mxGeometry width="50" height="50" relative="1" as="geometry">
            <mxPoint x="200" y="5230" as="sourcePoint" />
            <mxPoint x="3140" y="5230" as="targetPoint" />
          </mxGeometry>
        </mxCell>
        <mxCell id="lb9ZCilv8jvgpDcWReZ2-24" value="" style="endArrow=classic;html=1;rounded=0;fontSize=17;" edge="1" parent="1">
          <mxGeometry width="50" height="50" relative="1" as="geometry">
            <mxPoint x="200" y="5310" as="sourcePoint" />
            <mxPoint x="3140" y="5310" as="targetPoint" />
          </mxGeometry>
        </mxCell>
        <mxCell id="lb9ZCilv8jvgpDcWReZ2-25" value="" style="endArrow=classic;html=1;rounded=0;fontSize=17;" edge="1" parent="1">
          <mxGeometry width="50" height="50" relative="1" as="geometry">
            <mxPoint x="200" y="5390" as="sourcePoint" />
            <mxPoint x="3140" y="5390" as="targetPoint" />
          </mxGeometry>
        </mxCell>
        <mxCell id="lb9ZCilv8jvgpDcWReZ2-26" value="" style="endArrow=classic;html=1;rounded=0;fontSize=17;" edge="1" parent="1">
          <mxGeometry width="50" height="50" relative="1" as="geometry">
            <mxPoint x="200" y="5468.75" as="sourcePoint" />
            <mxPoint x="3140" y="5469" as="targetPoint" />
          </mxGeometry>
        </mxCell>
        <mxCell id="lb9ZCilv8jvgpDcWReZ2-27" value="" style="endArrow=classic;html=1;rounded=0;fontSize=17;" edge="1" parent="1">
          <mxGeometry width="50" height="50" relative="1" as="geometry">
            <mxPoint x="200" y="5550" as="sourcePoint" />
            <mxPoint x="3140" y="5550" as="targetPoint" />
          </mxGeometry>
        </mxCell>
        <mxCell id="lb9ZCilv8jvgpDcWReZ2-28" value="" style="endArrow=classic;html=1;rounded=0;fontSize=17;" edge="1" parent="1">
          <mxGeometry width="50" height="50" relative="1" as="geometry">
            <mxPoint x="200" y="5630" as="sourcePoint" />
            <mxPoint x="3140" y="5630" as="targetPoint" />
          </mxGeometry>
        </mxCell>
        <mxCell id="lb9ZCilv8jvgpDcWReZ2-29" value="" style="endArrow=classic;html=1;rounded=0;fontSize=17;" edge="1" parent="1">
          <mxGeometry width="50" height="50" relative="1" as="geometry">
            <mxPoint x="200" y="5710" as="sourcePoint" />
            <mxPoint x="3140" y="5710" as="targetPoint" />
          </mxGeometry>
        </mxCell>
        <mxCell id="lb9ZCilv8jvgpDcWReZ2-30" value="" style="endArrow=classic;html=1;rounded=0;fontSize=17;" edge="1" parent="1">
          <mxGeometry width="50" height="50" relative="1" as="geometry">
            <mxPoint x="200" y="5790" as="sourcePoint" />
            <mxPoint x="3140" y="5790" as="targetPoint" />
          </mxGeometry>
        </mxCell>
        <mxCell id="lb9ZCilv8jvgpDcWReZ2-31" value="" style="endArrow=classic;html=1;rounded=0;fontSize=17;" edge="1" parent="1">
          <mxGeometry width="50" height="50" relative="1" as="geometry">
            <mxPoint x="200" y="5870" as="sourcePoint" />
            <mxPoint x="3370" y="5870" as="targetPoint" />
          </mxGeometry>
        </mxCell>
        <mxCell id="lb9ZCilv8jvgpDcWReZ2-32" value="MD4" style="text;html=1;strokeColor=none;fillColor=none;align=center;verticalAlign=middle;whiteSpace=wrap;rounded=0;" vertex="1" parent="1">
          <mxGeometry x="140" y="4960" width="60" height="30" as="geometry" />
        </mxCell>
        <mxCell id="lb9ZCilv8jvgpDcWReZ2-33" value="VR1" style="text;html=1;strokeColor=none;fillColor=none;align=center;verticalAlign=middle;whiteSpace=wrap;rounded=0;" vertex="1" parent="1">
          <mxGeometry x="140" y="5040" width="60" height="30" as="geometry" />
        </mxCell>
        <mxCell id="lb9ZCilv8jvgpDcWReZ2-34" value="VR2" style="text;html=1;strokeColor=none;fillColor=none;align=center;verticalAlign=middle;whiteSpace=wrap;rounded=0;" vertex="1" parent="1">
          <mxGeometry x="140" y="5120" width="60" height="30" as="geometry" />
        </mxCell>
        <mxCell id="lb9ZCilv8jvgpDcWReZ2-35" value="VR3" style="text;html=1;strokeColor=none;fillColor=none;align=center;verticalAlign=middle;whiteSpace=wrap;rounded=0;" vertex="1" parent="1">
          <mxGeometry x="140" y="5200" width="60" height="30" as="geometry" />
        </mxCell>
        <mxCell id="lb9ZCilv8jvgpDcWReZ2-36" value="VR4" style="text;html=1;strokeColor=none;fillColor=none;align=center;verticalAlign=middle;whiteSpace=wrap;rounded=0;" vertex="1" parent="1">
          <mxGeometry x="140" y="5280" width="60" height="30" as="geometry" />
        </mxCell>
        <mxCell id="lb9ZCilv8jvgpDcWReZ2-37" value="VR5" style="text;html=1;strokeColor=none;fillColor=none;align=center;verticalAlign=middle;whiteSpace=wrap;rounded=0;" vertex="1" parent="1">
          <mxGeometry x="140" y="5360" width="60" height="30" as="geometry" />
        </mxCell>
        <mxCell id="lb9ZCilv8jvgpDcWReZ2-38" value="VR6" style="text;html=1;strokeColor=none;fillColor=none;align=center;verticalAlign=middle;whiteSpace=wrap;rounded=0;" vertex="1" parent="1">
          <mxGeometry x="140" y="5440" width="60" height="30" as="geometry" />
        </mxCell>
        <mxCell id="lb9ZCilv8jvgpDcWReZ2-39" value="VR7" style="text;html=1;strokeColor=none;fillColor=none;align=center;verticalAlign=middle;whiteSpace=wrap;rounded=0;" vertex="1" parent="1">
          <mxGeometry x="140" y="5520" width="60" height="30" as="geometry" />
        </mxCell>
        <mxCell id="lb9ZCilv8jvgpDcWReZ2-40" value="VR8" style="text;html=1;strokeColor=none;fillColor=none;align=center;verticalAlign=middle;whiteSpace=wrap;rounded=0;" vertex="1" parent="1">
          <mxGeometry x="140" y="5600" width="60" height="30" as="geometry" />
        </mxCell>
        <mxCell id="lb9ZCilv8jvgpDcWReZ2-41" value="SUM1" style="text;html=1;strokeColor=none;fillColor=none;align=center;verticalAlign=middle;whiteSpace=wrap;rounded=0;" vertex="1" parent="1">
          <mxGeometry x="140" y="5680" width="60" height="30" as="geometry" />
        </mxCell>
        <mxCell id="lb9ZCilv8jvgpDcWReZ2-42" value="MUL1" style="text;html=1;strokeColor=none;fillColor=none;align=center;verticalAlign=middle;whiteSpace=wrap;rounded=0;" vertex="1" parent="1">
          <mxGeometry x="140" y="5760" width="60" height="30" as="geometry" />
        </mxCell>
        <mxCell id="lb9ZCilv8jvgpDcWReZ2-43" value="DIV1" style="text;html=1;strokeColor=none;fillColor=none;align=center;verticalAlign=middle;whiteSpace=wrap;rounded=0;" vertex="1" parent="1">
          <mxGeometry x="140" y="5840" width="60" height="30" as="geometry" />
        </mxCell>
        <mxCell id="lb9ZCilv8jvgpDcWReZ2-44" value="B" style="rounded=0;whiteSpace=wrap;html=1;fontSize=17;" vertex="1" parent="1">
          <mxGeometry x="200" y="4230" width="20" height="40" as="geometry" />
        </mxCell>
        <mxCell id="lb9ZCilv8jvgpDcWReZ2-45" value="B" style="rounded=0;whiteSpace=wrap;html=1;fontSize=17;" vertex="1" parent="1">
          <mxGeometry x="220" y="4230" width="20" height="40" as="geometry" />
        </mxCell>
        <mxCell id="lb9ZCilv8jvgpDcWReZ2-46" value="B" style="rounded=0;whiteSpace=wrap;html=1;fontSize=17;" vertex="1" parent="1">
          <mxGeometry x="240" y="4230" width="20" height="40" as="geometry" />
        </mxCell>
        <mxCell id="lb9ZCilv8jvgpDcWReZ2-47" value="B" style="rounded=0;whiteSpace=wrap;html=1;fontSize=17;" vertex="1" parent="1">
          <mxGeometry x="260" y="4230" width="20" height="40" as="geometry" />
        </mxCell>
        <mxCell id="lb9ZCilv8jvgpDcWReZ2-48" value="B" style="rounded=0;whiteSpace=wrap;html=1;fontSize=17;" vertex="1" parent="1">
          <mxGeometry x="280" y="4230" width="20" height="40" as="geometry" />
        </mxCell>
        <mxCell id="lb9ZCilv8jvgpDcWReZ2-49" value="B" style="rounded=0;whiteSpace=wrap;html=1;fontSize=17;" vertex="1" parent="1">
          <mxGeometry x="300" y="4230" width="20" height="40" as="geometry" />
        </mxCell>
        <mxCell id="lb9ZCilv8jvgpDcWReZ2-50" value="B" style="rounded=0;whiteSpace=wrap;html=1;fontSize=17;" vertex="1" parent="1">
          <mxGeometry x="320" y="4230" width="20" height="40" as="geometry" />
        </mxCell>
        <mxCell id="lb9ZCilv8jvgpDcWReZ2-51" value="B" style="rounded=0;whiteSpace=wrap;html=1;fontSize=17;" vertex="1" parent="1">
          <mxGeometry x="340" y="4230" width="20" height="40" as="geometry" />
        </mxCell>
        <mxCell id="lb9ZCilv8jvgpDcWReZ2-52" value="1" style="text;html=1;strokeColor=none;fillColor=none;align=center;verticalAlign=middle;whiteSpace=wrap;rounded=0;fontSize=17;" vertex="1" parent="1">
          <mxGeometry x="200" y="4210" width="20" height="20" as="geometry" />
        </mxCell>
        <mxCell id="lb9ZCilv8jvgpDcWReZ2-53" value="2" style="text;html=1;strokeColor=none;fillColor=none;align=center;verticalAlign=middle;whiteSpace=wrap;rounded=0;fontSize=17;" vertex="1" parent="1">
          <mxGeometry x="220" y="4210" width="20" height="20" as="geometry" />
        </mxCell>
        <mxCell id="lb9ZCilv8jvgpDcWReZ2-54" value="3" style="text;html=1;strokeColor=none;fillColor=none;align=center;verticalAlign=middle;whiteSpace=wrap;rounded=0;fontSize=17;" vertex="1" parent="1">
          <mxGeometry x="240" y="4210" width="20" height="20" as="geometry" />
        </mxCell>
        <mxCell id="lb9ZCilv8jvgpDcWReZ2-55" value="4" style="text;html=1;strokeColor=none;fillColor=none;align=center;verticalAlign=middle;whiteSpace=wrap;rounded=0;fontSize=17;" vertex="1" parent="1">
          <mxGeometry x="260" y="4210" width="20" height="20" as="geometry" />
        </mxCell>
        <mxCell id="lb9ZCilv8jvgpDcWReZ2-56" value="5" style="text;html=1;strokeColor=none;fillColor=none;align=center;verticalAlign=middle;whiteSpace=wrap;rounded=0;fontSize=17;" vertex="1" parent="1">
          <mxGeometry x="280" y="4210" width="20" height="20" as="geometry" />
        </mxCell>
        <mxCell id="lb9ZCilv8jvgpDcWReZ2-57" value="6" style="text;html=1;strokeColor=none;fillColor=none;align=center;verticalAlign=middle;whiteSpace=wrap;rounded=0;fontSize=17;" vertex="1" parent="1">
          <mxGeometry x="300" y="4210" width="20" height="20" as="geometry" />
        </mxCell>
        <mxCell id="lb9ZCilv8jvgpDcWReZ2-58" value="7" style="text;html=1;strokeColor=none;fillColor=none;align=center;verticalAlign=middle;whiteSpace=wrap;rounded=0;fontSize=17;" vertex="1" parent="1">
          <mxGeometry x="320" y="4210" width="20" height="20" as="geometry" />
        </mxCell>
        <mxCell id="lb9ZCilv8jvgpDcWReZ2-59" value="8" style="text;html=1;strokeColor=none;fillColor=none;align=center;verticalAlign=middle;whiteSpace=wrap;rounded=0;fontSize=17;" vertex="1" parent="1">
          <mxGeometry x="340" y="4210" width="20" height="20" as="geometry" />
        </mxCell>
        <mxCell id="lb9ZCilv8jvgpDcWReZ2-60" value="H" style="rounded=0;whiteSpace=wrap;html=1;fontSize=17;" vertex="1" parent="1">
          <mxGeometry x="220" y="4310" width="20" height="40" as="geometry" />
        </mxCell>
        <mxCell id="lb9ZCilv8jvgpDcWReZ2-61" value="H" style="rounded=0;whiteSpace=wrap;html=1;fontSize=17;" vertex="1" parent="1">
          <mxGeometry x="240" y="4310" width="20" height="40" as="geometry" />
        </mxCell>
        <mxCell id="lb9ZCilv8jvgpDcWReZ2-62" value="H" style="rounded=0;whiteSpace=wrap;html=1;fontSize=17;" vertex="1" parent="1">
          <mxGeometry x="260" y="4310" width="20" height="40" as="geometry" />
        </mxCell>
        <mxCell id="lb9ZCilv8jvgpDcWReZ2-63" value="H" style="rounded=0;whiteSpace=wrap;html=1;fontSize=17;" vertex="1" parent="1">
          <mxGeometry x="280" y="4310" width="20" height="40" as="geometry" />
        </mxCell>
        <mxCell id="lb9ZCilv8jvgpDcWReZ2-64" value="H" style="rounded=0;whiteSpace=wrap;html=1;fontSize=17;" vertex="1" parent="1">
          <mxGeometry x="300" y="4310" width="20" height="40" as="geometry" />
        </mxCell>
        <mxCell id="lb9ZCilv8jvgpDcWReZ2-65" value="H" style="rounded=0;whiteSpace=wrap;html=1;fontSize=17;" vertex="1" parent="1">
          <mxGeometry x="320" y="4310" width="20" height="40" as="geometry" />
        </mxCell>
        <mxCell id="lb9ZCilv8jvgpDcWReZ2-66" value="H" style="rounded=0;whiteSpace=wrap;html=1;fontSize=17;" vertex="1" parent="1">
          <mxGeometry x="760" y="4310" width="20" height="40" as="geometry" />
        </mxCell>
        <mxCell id="lb9ZCilv8jvgpDcWReZ2-67" value="H" style="rounded=0;whiteSpace=wrap;html=1;fontSize=17;" vertex="1" parent="1">
          <mxGeometry x="780" y="4310" width="20" height="40" as="geometry" />
        </mxCell>
        <mxCell id="lb9ZCilv8jvgpDcWReZ2-68" value="1" style="text;html=1;strokeColor=none;fillColor=none;align=center;verticalAlign=middle;whiteSpace=wrap;rounded=0;fontSize=17;" vertex="1" parent="1">
          <mxGeometry x="220" y="4290" width="20" height="20" as="geometry" />
        </mxCell>
        <mxCell id="lb9ZCilv8jvgpDcWReZ2-69" value="2" style="text;html=1;strokeColor=none;fillColor=none;align=center;verticalAlign=middle;whiteSpace=wrap;rounded=0;fontSize=17;" vertex="1" parent="1">
          <mxGeometry x="240" y="4290" width="20" height="20" as="geometry" />
        </mxCell>
        <mxCell id="lb9ZCilv8jvgpDcWReZ2-70" value="3" style="text;html=1;strokeColor=none;fillColor=none;align=center;verticalAlign=middle;whiteSpace=wrap;rounded=0;fontSize=17;" vertex="1" parent="1">
          <mxGeometry x="260" y="4290" width="20" height="20" as="geometry" />
        </mxCell>
        <mxCell id="lb9ZCilv8jvgpDcWReZ2-71" value="4" style="text;html=1;strokeColor=none;fillColor=none;align=center;verticalAlign=middle;whiteSpace=wrap;rounded=0;fontSize=17;" vertex="1" parent="1">
          <mxGeometry x="280" y="4290" width="20" height="20" as="geometry" />
        </mxCell>
        <mxCell id="lb9ZCilv8jvgpDcWReZ2-72" value="5" style="text;html=1;strokeColor=none;fillColor=none;align=center;verticalAlign=middle;whiteSpace=wrap;rounded=0;fontSize=17;" vertex="1" parent="1">
          <mxGeometry x="300" y="4290" width="20" height="20" as="geometry" />
        </mxCell>
        <mxCell id="lb9ZCilv8jvgpDcWReZ2-73" value="6" style="text;html=1;strokeColor=none;fillColor=none;align=center;verticalAlign=middle;whiteSpace=wrap;rounded=0;fontSize=17;" vertex="1" parent="1">
          <mxGeometry x="320" y="4290" width="20" height="20" as="geometry" />
        </mxCell>
        <mxCell id="lb9ZCilv8jvgpDcWReZ2-74" value="7" style="text;html=1;strokeColor=none;fillColor=none;align=center;verticalAlign=middle;whiteSpace=wrap;rounded=0;fontSize=17;" vertex="1" parent="1">
          <mxGeometry x="760" y="4290" width="20" height="20" as="geometry" />
        </mxCell>
        <mxCell id="lb9ZCilv8jvgpDcWReZ2-75" value="8" style="text;html=1;strokeColor=none;fillColor=none;align=center;verticalAlign=middle;whiteSpace=wrap;rounded=0;fontSize=17;" vertex="1" parent="1">
          <mxGeometry x="780" y="4290" width="20" height="20" as="geometry" />
        </mxCell>
        <mxCell id="lb9ZCilv8jvgpDcWReZ2-76" value="K" style="rounded=0;whiteSpace=wrap;html=1;fontSize=17;" vertex="1" parent="1">
          <mxGeometry x="240" y="4390" width="20" height="40" as="geometry" />
        </mxCell>
        <mxCell id="lb9ZCilv8jvgpDcWReZ2-77" value="K" style="rounded=0;whiteSpace=wrap;html=1;fontSize=17;" vertex="1" parent="1">
          <mxGeometry x="260" y="4390" width="20" height="40" as="geometry" />
        </mxCell>
        <mxCell id="lb9ZCilv8jvgpDcWReZ2-78" value="K" style="rounded=0;whiteSpace=wrap;html=1;fontSize=17;" vertex="1" parent="1">
          <mxGeometry x="280" y="4390" width="20" height="40" as="geometry" />
        </mxCell>
        <mxCell id="lb9ZCilv8jvgpDcWReZ2-79" value="K" style="rounded=0;whiteSpace=wrap;html=1;fontSize=17;" vertex="1" parent="1">
          <mxGeometry x="300" y="4390" width="20" height="40" as="geometry" />
        </mxCell>
        <mxCell id="lb9ZCilv8jvgpDcWReZ2-80" value="K" style="rounded=0;whiteSpace=wrap;html=1;fontSize=17;" vertex="1" parent="1">
          <mxGeometry x="320" y="4390" width="20" height="40" as="geometry" />
        </mxCell>
        <mxCell id="lb9ZCilv8jvgpDcWReZ2-81" value="K" style="rounded=0;whiteSpace=wrap;html=1;fontSize=17;" vertex="1" parent="1">
          <mxGeometry x="760" y="4390" width="20" height="40" as="geometry" />
        </mxCell>
        <mxCell id="lb9ZCilv8jvgpDcWReZ2-82" value="K" style="rounded=0;whiteSpace=wrap;html=1;fontSize=17;" vertex="1" parent="1">
          <mxGeometry x="780" y="4390" width="20" height="40" as="geometry" />
        </mxCell>
        <mxCell id="lb9ZCilv8jvgpDcWReZ2-83" value="K" style="rounded=0;whiteSpace=wrap;html=1;fontSize=17;" vertex="1" parent="1">
          <mxGeometry x="1320" y="4390" width="20" height="40" as="geometry" />
        </mxCell>
        <mxCell id="lb9ZCilv8jvgpDcWReZ2-84" value="1" style="text;html=1;strokeColor=none;fillColor=none;align=center;verticalAlign=middle;whiteSpace=wrap;rounded=0;fontSize=17;" vertex="1" parent="1">
          <mxGeometry x="240" y="4370" width="20" height="20" as="geometry" />
        </mxCell>
        <mxCell id="lb9ZCilv8jvgpDcWReZ2-85" value="2" style="text;html=1;strokeColor=none;fillColor=none;align=center;verticalAlign=middle;whiteSpace=wrap;rounded=0;fontSize=17;" vertex="1" parent="1">
          <mxGeometry x="260" y="4370" width="20" height="20" as="geometry" />
        </mxCell>
        <mxCell id="lb9ZCilv8jvgpDcWReZ2-86" value="3" style="text;html=1;strokeColor=none;fillColor=none;align=center;verticalAlign=middle;whiteSpace=wrap;rounded=0;fontSize=17;" vertex="1" parent="1">
          <mxGeometry x="280" y="4370" width="20" height="20" as="geometry" />
        </mxCell>
        <mxCell id="lb9ZCilv8jvgpDcWReZ2-87" value="4" style="text;html=1;strokeColor=none;fillColor=none;align=center;verticalAlign=middle;whiteSpace=wrap;rounded=0;fontSize=17;" vertex="1" parent="1">
          <mxGeometry x="300" y="4370" width="20" height="20" as="geometry" />
        </mxCell>
        <mxCell id="lb9ZCilv8jvgpDcWReZ2-88" value="5" style="text;html=1;strokeColor=none;fillColor=none;align=center;verticalAlign=middle;whiteSpace=wrap;rounded=0;fontSize=17;" vertex="1" parent="1">
          <mxGeometry x="320" y="4370" width="20" height="20" as="geometry" />
        </mxCell>
        <mxCell id="lb9ZCilv8jvgpDcWReZ2-89" value="6" style="text;html=1;strokeColor=none;fillColor=none;align=center;verticalAlign=middle;whiteSpace=wrap;rounded=0;fontSize=17;" vertex="1" parent="1">
          <mxGeometry x="760" y="4370" width="20" height="20" as="geometry" />
        </mxCell>
        <mxCell id="lb9ZCilv8jvgpDcWReZ2-90" value="7" style="text;html=1;strokeColor=none;fillColor=none;align=center;verticalAlign=middle;whiteSpace=wrap;rounded=0;fontSize=17;" vertex="1" parent="1">
          <mxGeometry x="780" y="4370" width="20" height="20" as="geometry" />
        </mxCell>
        <mxCell id="lb9ZCilv8jvgpDcWReZ2-91" value="9" style="text;html=1;strokeColor=none;fillColor=none;align=center;verticalAlign=middle;whiteSpace=wrap;rounded=0;fontSize=17;" vertex="1" parent="1">
          <mxGeometry x="1320" y="4370" width="20" height="20" as="geometry" />
        </mxCell>
        <mxCell id="lb9ZCilv8jvgpDcWReZ2-92" value="D" style="rounded=0;whiteSpace=wrap;html=1;fontSize=17;" vertex="1" parent="1">
          <mxGeometry x="260" y="4470" width="20" height="40" as="geometry" />
        </mxCell>
        <mxCell id="lb9ZCilv8jvgpDcWReZ2-93" value="D" style="rounded=0;whiteSpace=wrap;html=1;fontSize=17;" vertex="1" parent="1">
          <mxGeometry x="280" y="4470" width="20" height="40" as="geometry" />
        </mxCell>
        <mxCell id="lb9ZCilv8jvgpDcWReZ2-94" value="D" style="rounded=0;whiteSpace=wrap;html=1;fontSize=17;" vertex="1" parent="1">
          <mxGeometry x="300" y="4470" width="20" height="40" as="geometry" />
        </mxCell>
        <mxCell id="lb9ZCilv8jvgpDcWReZ2-95" value="D" style="rounded=0;whiteSpace=wrap;html=1;fontSize=17;" vertex="1" parent="1">
          <mxGeometry x="320" y="4470" width="20" height="40" as="geometry" />
        </mxCell>
        <mxCell id="lb9ZCilv8jvgpDcWReZ2-96" value="D" style="rounded=0;whiteSpace=wrap;html=1;fontSize=17;" vertex="1" parent="1">
          <mxGeometry x="340" y="4470" width="20" height="40" as="geometry" />
        </mxCell>
        <mxCell id="lb9ZCilv8jvgpDcWReZ2-97" value="D" style="rounded=0;whiteSpace=wrap;html=1;fontSize=17;" vertex="1" parent="1">
          <mxGeometry x="780" y="4470" width="20" height="40" as="geometry" />
        </mxCell>
        <mxCell id="lb9ZCilv8jvgpDcWReZ2-98" value="D" style="rounded=0;whiteSpace=wrap;html=1;fontSize=17;" vertex="1" parent="1">
          <mxGeometry x="800" y="4470" width="20" height="40" as="geometry" />
        </mxCell>
        <mxCell id="lb9ZCilv8jvgpDcWReZ2-99" value="D" style="rounded=0;whiteSpace=wrap;html=1;fontSize=17;" vertex="1" parent="1">
          <mxGeometry x="820" y="4470" width="20" height="40" as="geometry" />
        </mxCell>
        <mxCell id="lb9ZCilv8jvgpDcWReZ2-100" value="1" style="text;html=1;strokeColor=none;fillColor=none;align=center;verticalAlign=middle;whiteSpace=wrap;rounded=0;fontSize=17;" vertex="1" parent="1">
          <mxGeometry x="260" y="4450" width="20" height="20" as="geometry" />
        </mxCell>
        <mxCell id="lb9ZCilv8jvgpDcWReZ2-101" value="2" style="text;html=1;strokeColor=none;fillColor=none;align=center;verticalAlign=middle;whiteSpace=wrap;rounded=0;fontSize=17;" vertex="1" parent="1">
          <mxGeometry x="280" y="4450" width="20" height="20" as="geometry" />
        </mxCell>
        <mxCell id="lb9ZCilv8jvgpDcWReZ2-102" value="3" style="text;html=1;strokeColor=none;fillColor=none;align=center;verticalAlign=middle;whiteSpace=wrap;rounded=0;fontSize=17;" vertex="1" parent="1">
          <mxGeometry x="300" y="4450" width="20" height="20" as="geometry" />
        </mxCell>
        <mxCell id="lb9ZCilv8jvgpDcWReZ2-103" value="4" style="text;html=1;strokeColor=none;fillColor=none;align=center;verticalAlign=middle;whiteSpace=wrap;rounded=0;fontSize=17;" vertex="1" parent="1">
          <mxGeometry x="320" y="4450" width="20" height="20" as="geometry" />
        </mxCell>
        <mxCell id="lb9ZCilv8jvgpDcWReZ2-104" value="5" style="text;html=1;strokeColor=none;fillColor=none;align=center;verticalAlign=middle;whiteSpace=wrap;rounded=0;fontSize=17;" vertex="1" parent="1">
          <mxGeometry x="340" y="4450" width="20" height="20" as="geometry" />
        </mxCell>
        <mxCell id="lb9ZCilv8jvgpDcWReZ2-105" value="6" style="text;html=1;strokeColor=none;fillColor=none;align=center;verticalAlign=middle;whiteSpace=wrap;rounded=0;fontSize=17;" vertex="1" parent="1">
          <mxGeometry x="780" y="4450" width="20" height="20" as="geometry" />
        </mxCell>
        <mxCell id="lb9ZCilv8jvgpDcWReZ2-106" value="7" style="text;html=1;strokeColor=none;fillColor=none;align=center;verticalAlign=middle;whiteSpace=wrap;rounded=0;fontSize=17;" vertex="1" parent="1">
          <mxGeometry x="800" y="4450" width="20" height="20" as="geometry" />
        </mxCell>
        <mxCell id="lb9ZCilv8jvgpDcWReZ2-107" value="8" style="text;html=1;strokeColor=none;fillColor=none;align=center;verticalAlign=middle;whiteSpace=wrap;rounded=0;fontSize=17;" vertex="1" parent="1">
          <mxGeometry x="820" y="4450" width="20" height="20" as="geometry" />
        </mxCell>
        <mxCell id="lb9ZCilv8jvgpDcWReZ2-108" value="G" style="rounded=0;whiteSpace=wrap;html=1;fontSize=17;" vertex="1" parent="1">
          <mxGeometry x="280" y="4550" width="40" height="40" as="geometry" />
        </mxCell>
        <mxCell id="lb9ZCilv8jvgpDcWReZ2-109" value="1" style="text;html=1;strokeColor=none;fillColor=none;align=center;verticalAlign=middle;whiteSpace=wrap;rounded=0;fontSize=17;" vertex="1" parent="1">
          <mxGeometry x="280" y="4530" width="40" height="20" as="geometry" />
        </mxCell>
        <mxCell id="lb9ZCilv8jvgpDcWReZ2-110" value="G" style="rounded=0;whiteSpace=wrap;html=1;fontSize=17;" vertex="1" parent="1">
          <mxGeometry x="320" y="4550" width="40" height="40" as="geometry" />
        </mxCell>
        <mxCell id="lb9ZCilv8jvgpDcWReZ2-111" value="2" style="text;html=1;strokeColor=none;fillColor=none;align=center;verticalAlign=middle;whiteSpace=wrap;rounded=0;fontSize=17;" vertex="1" parent="1">
          <mxGeometry x="320" y="4530" width="40" height="20" as="geometry" />
        </mxCell>
        <mxCell id="lb9ZCilv8jvgpDcWReZ2-112" value="G" style="rounded=0;whiteSpace=wrap;html=1;fontSize=17;" vertex="1" parent="1">
          <mxGeometry x="360" y="4550" width="40" height="40" as="geometry" />
        </mxCell>
        <mxCell id="lb9ZCilv8jvgpDcWReZ2-113" value="3" style="text;html=1;strokeColor=none;fillColor=none;align=center;verticalAlign=middle;whiteSpace=wrap;rounded=0;fontSize=17;" vertex="1" parent="1">
          <mxGeometry x="360" y="4530" width="40" height="20" as="geometry" />
        </mxCell>
        <mxCell id="lb9ZCilv8jvgpDcWReZ2-114" value="G" style="rounded=0;whiteSpace=wrap;html=1;fontSize=17;" vertex="1" parent="1">
          <mxGeometry x="400" y="4550" width="40" height="40" as="geometry" />
        </mxCell>
        <mxCell id="lb9ZCilv8jvgpDcWReZ2-115" value="4" style="text;html=1;strokeColor=none;fillColor=none;align=center;verticalAlign=middle;whiteSpace=wrap;rounded=0;fontSize=17;" vertex="1" parent="1">
          <mxGeometry x="400" y="4530" width="40" height="20" as="geometry" />
        </mxCell>
        <mxCell id="lb9ZCilv8jvgpDcWReZ2-116" value="G" style="rounded=0;whiteSpace=wrap;html=1;fontSize=17;" vertex="1" parent="1">
          <mxGeometry x="440" y="4550" width="40" height="40" as="geometry" />
        </mxCell>
        <mxCell id="lb9ZCilv8jvgpDcWReZ2-117" value="5" style="text;html=1;strokeColor=none;fillColor=none;align=center;verticalAlign=middle;whiteSpace=wrap;rounded=0;fontSize=17;" vertex="1" parent="1">
          <mxGeometry x="440" y="4530" width="40" height="20" as="geometry" />
        </mxCell>
        <mxCell id="lb9ZCilv8jvgpDcWReZ2-118" value="G" style="rounded=0;whiteSpace=wrap;html=1;fontSize=17;" vertex="1" parent="1">
          <mxGeometry x="800" y="4550" width="40" height="40" as="geometry" />
        </mxCell>
        <mxCell id="lb9ZCilv8jvgpDcWReZ2-119" value="6" style="text;html=1;strokeColor=none;fillColor=none;align=center;verticalAlign=middle;whiteSpace=wrap;rounded=0;fontSize=17;" vertex="1" parent="1">
          <mxGeometry x="800" y="4530" width="40" height="20" as="geometry" />
        </mxCell>
        <mxCell id="lb9ZCilv8jvgpDcWReZ2-120" value="G" style="rounded=0;whiteSpace=wrap;html=1;fontSize=17;" vertex="1" parent="1">
          <mxGeometry x="840" y="4550" width="40" height="40" as="geometry" />
        </mxCell>
        <mxCell id="lb9ZCilv8jvgpDcWReZ2-121" value="7" style="text;html=1;strokeColor=none;fillColor=none;align=center;verticalAlign=middle;whiteSpace=wrap;rounded=0;fontSize=17;" vertex="1" parent="1">
          <mxGeometry x="840" y="4530" width="40" height="20" as="geometry" />
        </mxCell>
        <mxCell id="lb9ZCilv8jvgpDcWReZ2-122" value="G" style="rounded=0;whiteSpace=wrap;html=1;fontSize=17;" vertex="1" parent="1">
          <mxGeometry x="880" y="4550" width="40" height="40" as="geometry" />
        </mxCell>
        <mxCell id="lb9ZCilv8jvgpDcWReZ2-123" value="8" style="text;html=1;strokeColor=none;fillColor=none;align=center;verticalAlign=middle;whiteSpace=wrap;rounded=0;fontSize=17;" vertex="1" parent="1">
          <mxGeometry x="880" y="4530" width="40" height="20" as="geometry" />
        </mxCell>
        <mxCell id="lb9ZCilv8jvgpDcWReZ2-124" value="L" style="rounded=0;whiteSpace=wrap;html=1;fontSize=17;" vertex="1" parent="1">
          <mxGeometry x="320" y="4630" width="40" height="40" as="geometry" />
        </mxCell>
        <mxCell id="lb9ZCilv8jvgpDcWReZ2-125" value="1" style="text;html=1;strokeColor=none;fillColor=none;align=center;verticalAlign=middle;whiteSpace=wrap;rounded=0;fontSize=17;" vertex="1" parent="1">
          <mxGeometry x="320" y="4610" width="40" height="20" as="geometry" />
        </mxCell>
        <mxCell id="lb9ZCilv8jvgpDcWReZ2-126" value="L" style="rounded=0;whiteSpace=wrap;html=1;fontSize=17;" vertex="1" parent="1">
          <mxGeometry x="360" y="4630" width="40" height="40" as="geometry" />
        </mxCell>
        <mxCell id="lb9ZCilv8jvgpDcWReZ2-127" value="2" style="text;html=1;strokeColor=none;fillColor=none;align=center;verticalAlign=middle;whiteSpace=wrap;rounded=0;fontSize=17;" vertex="1" parent="1">
          <mxGeometry x="360" y="4610" width="40" height="20" as="geometry" />
        </mxCell>
        <mxCell id="lb9ZCilv8jvgpDcWReZ2-128" value="L" style="rounded=0;whiteSpace=wrap;html=1;fontSize=17;" vertex="1" parent="1">
          <mxGeometry x="400" y="4630" width="40" height="40" as="geometry" />
        </mxCell>
        <mxCell id="lb9ZCilv8jvgpDcWReZ2-129" value="3" style="text;html=1;strokeColor=none;fillColor=none;align=center;verticalAlign=middle;whiteSpace=wrap;rounded=0;fontSize=17;" vertex="1" parent="1">
          <mxGeometry x="400" y="4610" width="40" height="20" as="geometry" />
        </mxCell>
        <mxCell id="lb9ZCilv8jvgpDcWReZ2-130" value="L" style="rounded=0;whiteSpace=wrap;html=1;fontSize=17;" vertex="1" parent="1">
          <mxGeometry x="440" y="4630" width="40" height="40" as="geometry" />
        </mxCell>
        <mxCell id="lb9ZCilv8jvgpDcWReZ2-131" value="4" style="text;html=1;strokeColor=none;fillColor=none;align=center;verticalAlign=middle;whiteSpace=wrap;rounded=0;fontSize=17;" vertex="1" parent="1">
          <mxGeometry x="440" y="4610" width="40" height="20" as="geometry" />
        </mxCell>
        <mxCell id="lb9ZCilv8jvgpDcWReZ2-132" value="L" style="rounded=0;whiteSpace=wrap;html=1;fontSize=17;" vertex="1" parent="1">
          <mxGeometry x="480" y="4630" width="40" height="40" as="geometry" />
        </mxCell>
        <mxCell id="lb9ZCilv8jvgpDcWReZ2-133" value="5" style="text;html=1;strokeColor=none;fillColor=none;align=center;verticalAlign=middle;whiteSpace=wrap;rounded=0;fontSize=17;" vertex="1" parent="1">
          <mxGeometry x="480" y="4610" width="40" height="20" as="geometry" />
        </mxCell>
        <mxCell id="lb9ZCilv8jvgpDcWReZ2-134" value="L" style="rounded=0;whiteSpace=wrap;html=1;fontSize=17;" vertex="1" parent="1">
          <mxGeometry x="840" y="4630" width="40" height="40" as="geometry" />
        </mxCell>
        <mxCell id="lb9ZCilv8jvgpDcWReZ2-135" value="6" style="text;html=1;strokeColor=none;fillColor=none;align=center;verticalAlign=middle;whiteSpace=wrap;rounded=0;fontSize=17;" vertex="1" parent="1">
          <mxGeometry x="840" y="4610" width="40" height="20" as="geometry" />
        </mxCell>
        <mxCell id="lb9ZCilv8jvgpDcWReZ2-136" value="L" style="rounded=0;whiteSpace=wrap;html=1;fontSize=17;" vertex="1" parent="1">
          <mxGeometry x="880" y="4630" width="40" height="40" as="geometry" />
        </mxCell>
        <mxCell id="lb9ZCilv8jvgpDcWReZ2-137" value="7" style="text;html=1;strokeColor=none;fillColor=none;align=center;verticalAlign=middle;whiteSpace=wrap;rounded=0;fontSize=17;" vertex="1" parent="1">
          <mxGeometry x="880" y="4610" width="40" height="20" as="geometry" />
        </mxCell>
        <mxCell id="lb9ZCilv8jvgpDcWReZ2-138" value="L" style="rounded=0;whiteSpace=wrap;html=1;fontSize=17;" vertex="1" parent="1">
          <mxGeometry x="920" y="4630" width="40" height="40" as="geometry" />
        </mxCell>
        <mxCell id="lb9ZCilv8jvgpDcWReZ2-139" value="8" style="text;html=1;strokeColor=none;fillColor=none;align=center;verticalAlign=middle;whiteSpace=wrap;rounded=0;fontSize=17;" vertex="1" parent="1">
          <mxGeometry x="920" y="4610" width="40" height="20" as="geometry" />
        </mxCell>
        <mxCell id="lb9ZCilv8jvgpDcWReZ2-140" value="" style="endArrow=none;dashed=1;html=1;dashPattern=1 3;strokeWidth=2;rounded=0;entryX=1;entryY=1;entryDx=0;entryDy=0;strokeColor=#B3B3B3;exitX=0;exitY=0;exitDx=0;exitDy=0;fontSize=17;" edge="1" parent="1" source="lb9ZCilv8jvgpDcWReZ2-143" target="lb9ZCilv8jvgpDcWReZ2-124">
          <mxGeometry width="50" height="50" relative="1" as="geometry">
            <mxPoint x="360" y="4750" as="sourcePoint" />
            <mxPoint x="630" y="4490" as="targetPoint" />
          </mxGeometry>
        </mxCell>
        <mxCell id="lb9ZCilv8jvgpDcWReZ2-141" value="U" style="rounded=0;whiteSpace=wrap;html=1;fontSize=17;" vertex="1" parent="1">
          <mxGeometry x="360" y="4710" width="400" height="40" as="geometry" />
        </mxCell>
        <mxCell id="lb9ZCilv8jvgpDcWReZ2-142" value="1" style="text;html=1;strokeColor=none;fillColor=none;align=center;verticalAlign=middle;whiteSpace=wrap;rounded=0;fontSize=17;" vertex="1" parent="1">
          <mxGeometry x="360" y="4690" width="390" height="20" as="geometry" />
        </mxCell>
        <mxCell id="lb9ZCilv8jvgpDcWReZ2-143" value="U" style="rounded=0;whiteSpace=wrap;html=1;fontSize=17;" vertex="1" parent="1">
          <mxGeometry x="360" y="5030" width="392" height="40" as="geometry" />
        </mxCell>
        <mxCell id="lb9ZCilv8jvgpDcWReZ2-144" value="1" style="text;html=1;strokeColor=none;fillColor=none;align=center;verticalAlign=middle;whiteSpace=wrap;rounded=0;fontSize=17;" vertex="1" parent="1">
          <mxGeometry x="360" y="5010" width="390" height="20" as="geometry" />
        </mxCell>
        <mxCell id="lb9ZCilv8jvgpDcWReZ2-145" value="" style="endArrow=none;dashed=1;html=1;dashPattern=1 3;strokeWidth=2;rounded=0;entryX=1;entryY=1;entryDx=0;entryDy=0;strokeColor=#B3B3B3;fontSize=17;" edge="1" parent="1">
          <mxGeometry width="50" height="50" relative="1" as="geometry">
            <mxPoint x="400" y="5110" as="sourcePoint" />
            <mxPoint x="400" y="4660" as="targetPoint" />
          </mxGeometry>
        </mxCell>
        <mxCell id="lb9ZCilv8jvgpDcWReZ2-146" value="Z" style="rounded=0;whiteSpace=wrap;html=1;fontSize=17;" vertex="1" parent="1">
          <mxGeometry x="400" y="4790" width="392" height="40" as="geometry" />
        </mxCell>
        <mxCell id="lb9ZCilv8jvgpDcWReZ2-147" value="2" style="text;html=1;strokeColor=none;fillColor=none;align=center;verticalAlign=middle;whiteSpace=wrap;rounded=0;fontSize=17;" vertex="1" parent="1">
          <mxGeometry x="400" y="4770" width="390" height="20" as="geometry" />
        </mxCell>
        <mxCell id="lb9ZCilv8jvgpDcWReZ2-148" value="Z" style="rounded=0;whiteSpace=wrap;html=1;fontSize=17;" vertex="1" parent="1">
          <mxGeometry x="400" y="5110" width="392" height="40" as="geometry" />
        </mxCell>
        <mxCell id="lb9ZCilv8jvgpDcWReZ2-149" value="2" style="text;html=1;strokeColor=none;fillColor=none;align=center;verticalAlign=middle;whiteSpace=wrap;rounded=0;fontSize=17;" vertex="1" parent="1">
          <mxGeometry x="400" y="5090" width="390" height="20" as="geometry" />
        </mxCell>
        <mxCell id="lb9ZCilv8jvgpDcWReZ2-150" value="" style="endArrow=none;dashed=1;html=1;dashPattern=1 3;strokeWidth=2;rounded=0;entryX=1;entryY=1;entryDx=0;entryDy=0;strokeColor=#B3B3B3;fontSize=17;" edge="1" parent="1">
          <mxGeometry width="50" height="50" relative="1" as="geometry">
            <mxPoint x="440" y="5190" as="sourcePoint" />
            <mxPoint x="440" y="4670" as="targetPoint" />
          </mxGeometry>
        </mxCell>
        <mxCell id="lb9ZCilv8jvgpDcWReZ2-151" value="V" style="rounded=0;whiteSpace=wrap;html=1;fontSize=17;" vertex="1" parent="1">
          <mxGeometry x="440" y="5190" width="392" height="40" as="geometry" />
        </mxCell>
        <mxCell id="lb9ZCilv8jvgpDcWReZ2-152" value="V" style="rounded=0;whiteSpace=wrap;html=1;fontSize=17;" vertex="1" parent="1">
          <mxGeometry x="440" y="4870" width="392" height="40" as="geometry" />
        </mxCell>
        <mxCell id="lb9ZCilv8jvgpDcWReZ2-153" value="3&lt;span style=&quot;color: rgba(0, 0, 0, 0); font-family: monospace; font-size: 17px;&quot;&gt;%3CmxGraphModel%3E%3Croot%3E%3CmxCell%20id%3D%220%22%2F%3E%3CmxCell%20id%3D%221%22%20parent%3D%220%22%2F%3E%3CmxCell%20id%3D%222%22%20value%3D%222%22%20style%3D%22text%3Bhtml%3D1%3BstrokeColor%3Dnone%3BfillColor%3Dnone%3Balign%3Dcenter%3BverticalAlign%3Dmiddle%3BwhiteSpace%3Dwrap%3Brounded%3D0%3B%22%20vertex%3D%221%22%20parent%3D%221%22%3E%3CmxGeometry%20x%3D%22380%22%20y%3D%22820%22%20width%3D%22200%22%20height%3D%2220%22%20as%3D%22geometry%22%2F%3E%3C%2FmxCell%3E%3C%2Froot%3E%3C%2FmxGraphModel%3E&lt;/span&gt;" style="text;html=1;strokeColor=none;fillColor=none;align=center;verticalAlign=middle;whiteSpace=wrap;rounded=0;fontSize=17;" vertex="1" parent="1">
          <mxGeometry x="440" y="5170" width="390" height="20" as="geometry" />
        </mxCell>
        <mxCell id="lb9ZCilv8jvgpDcWReZ2-154" value="3" style="text;html=1;strokeColor=none;fillColor=none;align=center;verticalAlign=middle;whiteSpace=wrap;rounded=0;fontSize=17;" vertex="1" parent="1">
          <mxGeometry x="440" y="4850" width="390" height="20" as="geometry" />
        </mxCell>
        <mxCell id="lb9ZCilv8jvgpDcWReZ2-155" value="" style="endArrow=none;dashed=1;html=1;dashPattern=1 3;strokeWidth=2;rounded=0;entryX=1;entryY=1;entryDx=0;entryDy=0;strokeColor=#B3B3B3;fontSize=17;" edge="1" parent="1">
          <mxGeometry width="50" height="50" relative="1" as="geometry">
            <mxPoint x="480" y="5752.35294117647" as="sourcePoint" />
            <mxPoint x="480" y="4670" as="targetPoint" />
          </mxGeometry>
        </mxCell>
        <mxCell id="lb9ZCilv8jvgpDcWReZ2-156" value="U*Z" style="rounded=0;whiteSpace=wrap;html=1;fontSize=17;" vertex="1" parent="1">
          <mxGeometry x="480" y="5750" width="440" height="40" as="geometry" />
        </mxCell>
        <mxCell id="lb9ZCilv8jvgpDcWReZ2-157" value="" style="endArrow=classic;html=1;rounded=0;strokeColor=#808080;dashed=1;entryX=0;entryY=1;entryDx=0;entryDy=0;jumpStyle=none;startArrow=oval;startFill=1;sketch=0;fontSize=17;" edge="1" parent="1" target="lb9ZCilv8jvgpDcWReZ2-158">
          <mxGeometry width="50" height="50" relative="1" as="geometry">
            <mxPoint x="540" y="5750" as="sourcePoint" />
            <mxPoint x="540" y="5410" as="targetPoint" />
          </mxGeometry>
        </mxCell>
        <mxCell id="lb9ZCilv8jvgpDcWReZ2-158" value="U*Z" style="rounded=0;whiteSpace=wrap;html=1;fontSize=17;" vertex="1" parent="1">
          <mxGeometry x="540" y="5270" width="400" height="40" as="geometry" />
        </mxCell>
        <mxCell id="lb9ZCilv8jvgpDcWReZ2-159" value="4" style="text;html=1;strokeColor=none;fillColor=none;align=center;verticalAlign=middle;whiteSpace=wrap;rounded=0;fontSize=17;" vertex="1" parent="1">
          <mxGeometry x="480" y="5730" width="440" height="20" as="geometry" />
        </mxCell>
        <mxCell id="lb9ZCilv8jvgpDcWReZ2-160" value="4" style="text;html=1;strokeColor=none;fillColor=none;align=center;verticalAlign=middle;whiteSpace=wrap;rounded=0;fontSize=17;" vertex="1" parent="1">
          <mxGeometry x="540" y="5250" width="400" height="20" as="geometry" />
        </mxCell>
        <mxCell id="lb9ZCilv8jvgpDcWReZ2-161" value="ЗАНЯТ" style="rounded=0;whiteSpace=wrap;html=1;strokeColor=none;shadow=0;sketch=0;fillColor=#f8cecc;glass=0;fontSize=17;" vertex="1" parent="1">
          <mxGeometry x="752" y="5030" width="168" height="40" as="geometry" />
        </mxCell>
        <mxCell id="lb9ZCilv8jvgpDcWReZ2-162" value="&lt;span style=&quot;font-size: 17px;&quot;&gt;ЗАНЯТ&lt;/span&gt;" style="rounded=0;whiteSpace=wrap;html=1;strokeColor=none;shadow=0;sketch=0;fillColor=#f8cecc;glass=0;fontSize=17;" vertex="1" parent="1">
          <mxGeometry x="792" y="5110" width="128" height="40" as="geometry" />
        </mxCell>
        <mxCell id="lb9ZCilv8jvgpDcWReZ2-163" value="" style="endArrow=none;dashed=1;html=1;dashPattern=1 3;strokeWidth=2;rounded=0;entryX=1;entryY=1;entryDx=0;entryDy=0;strokeColor=#B3B3B3;exitX=0;exitY=0.75;exitDx=0;exitDy=0;fontSize=17;" edge="1" parent="1" source="lb9ZCilv8jvgpDcWReZ2-167">
          <mxGeometry width="50" height="50" relative="1" as="geometry">
            <mxPoint x="518" y="4950" as="sourcePoint" />
            <mxPoint x="518.3299999999999" y="4670" as="targetPoint" />
          </mxGeometry>
        </mxCell>
        <mxCell id="lb9ZCilv8jvgpDcWReZ2-164" value="Q" style="rounded=0;whiteSpace=wrap;html=1;fontSize=17;" vertex="1" parent="1">
          <mxGeometry x="520" y="4950" width="352" height="40" as="geometry" />
        </mxCell>
        <mxCell id="lb9ZCilv8jvgpDcWReZ2-165" value="5" style="text;html=1;strokeColor=none;fillColor=none;align=center;verticalAlign=middle;whiteSpace=wrap;rounded=0;fontSize=17;" vertex="1" parent="1">
          <mxGeometry x="520" y="4930" width="350" height="20" as="geometry" />
        </mxCell>
        <mxCell id="lb9ZCilv8jvgpDcWReZ2-166" value="Q" style="rounded=0;whiteSpace=wrap;html=1;glass=0;sketch=0;fillColor=none;fontSize=17;" vertex="1" parent="1">
          <mxGeometry x="520" y="5350" width="400" height="40" as="geometry" />
        </mxCell>
        <mxCell id="lb9ZCilv8jvgpDcWReZ2-167" value="5" style="text;html=1;strokeColor=none;fillColor=none;align=center;verticalAlign=middle;whiteSpace=wrap;rounded=0;fontSize=17;" vertex="1" parent="1">
          <mxGeometry x="520" y="5330" width="400" height="20" as="geometry" />
        </mxCell>
        <mxCell id="lb9ZCilv8jvgpDcWReZ2-168" value="X" style="rounded=0;whiteSpace=wrap;html=1;fontSize=17;" vertex="1" parent="1">
          <mxGeometry x="880" y="4710" width="398" height="40" as="geometry" />
        </mxCell>
        <mxCell id="lb9ZCilv8jvgpDcWReZ2-169" value="6" style="text;html=1;strokeColor=none;fillColor=none;align=center;verticalAlign=middle;whiteSpace=wrap;rounded=0;fontSize=17;" vertex="1" parent="1">
          <mxGeometry x="880" y="4690" width="398" height="20" as="geometry" />
        </mxCell>
        <mxCell id="lb9ZCilv8jvgpDcWReZ2-170" value="X" style="rounded=0;whiteSpace=wrap;html=1;fontSize=17;" vertex="1" parent="1">
          <mxGeometry x="880" y="5430" width="400" height="40" as="geometry" />
        </mxCell>
        <mxCell id="lb9ZCilv8jvgpDcWReZ2-171" value="6" style="text;html=1;strokeColor=none;fillColor=none;align=center;verticalAlign=middle;whiteSpace=wrap;rounded=0;fontSize=17;" vertex="1" parent="1">
          <mxGeometry x="872" y="5410" width="398" height="20" as="geometry" />
        </mxCell>
        <mxCell id="lb9ZCilv8jvgpDcWReZ2-173" value="V-Q" style="rounded=0;whiteSpace=wrap;html=1;fontSize=17;" vertex="1" parent="1">
          <mxGeometry x="920" y="5670" width="400" height="40" as="geometry" />
        </mxCell>
        <mxCell id="lb9ZCilv8jvgpDcWReZ2-174" value="7" style="text;html=1;strokeColor=none;fillColor=none;align=center;verticalAlign=middle;whiteSpace=wrap;rounded=0;fontSize=17;" vertex="1" parent="1">
          <mxGeometry x="912" y="5650" width="400" height="20" as="geometry" />
        </mxCell>
        <mxCell id="lb9ZCilv8jvgpDcWReZ2-175" value="V-Q" style="rounded=0;whiteSpace=wrap;html=1;fontSize=17;" vertex="1" parent="1">
          <mxGeometry x="940" y="5510" width="400" height="40" as="geometry" />
        </mxCell>
        <mxCell id="lb9ZCilv8jvgpDcWReZ2-176" value="7" style="text;html=1;strokeColor=none;fillColor=none;align=center;verticalAlign=middle;whiteSpace=wrap;rounded=0;fontSize=17;" vertex="1" parent="1">
          <mxGeometry x="940" y="5490" width="400" height="20" as="geometry" />
        </mxCell>
        <mxCell id="lb9ZCilv8jvgpDcWReZ2-177" value="" style="endArrow=classic;html=1;rounded=0;strokeColor=#808080;dashed=1;entryX=0;entryY=1;entryDx=0;entryDy=0;jumpStyle=none;startArrow=oval;startFill=1;sketch=0;fontSize=17;exitX=0.069;exitY=1.107;exitDx=0;exitDy=0;exitPerimeter=0;" edge="1" parent="1" source="lb9ZCilv8jvgpDcWReZ2-174" target="lb9ZCilv8jvgpDcWReZ2-175">
          <mxGeometry width="50" height="50" relative="1" as="geometry">
            <mxPoint x="932" y="5670" as="sourcePoint" />
            <mxPoint x="932" y="5550" as="targetPoint" />
          </mxGeometry>
        </mxCell>
        <mxCell id="lb9ZCilv8jvgpDcWReZ2-178" value="ЗАНЯТ" style="rounded=0;whiteSpace=wrap;html=1;strokeColor=none;shadow=0;sketch=0;fillColor=#f8cecc;glass=0;fontSize=17;" vertex="1" parent="1">
          <mxGeometry x="832" y="5190" width="168" height="40" as="geometry" />
        </mxCell>
        <mxCell id="lb9ZCilv8jvgpDcWReZ2-179" value="ЗАНЯТ" style="rounded=0;whiteSpace=wrap;html=1;strokeColor=none;shadow=0;sketch=0;fillColor=#f8cecc;glass=0;fontSize=17;" vertex="1" parent="1">
          <mxGeometry x="920" y="5350" width="80" height="40" as="geometry" />
        </mxCell>
        <mxCell id="lb9ZCilv8jvgpDcWReZ2-180" value="P" style="rounded=0;whiteSpace=wrap;html=1;fontSize=17;" vertex="1" parent="1">
          <mxGeometry x="960" y="4790" width="398" height="40" as="geometry" />
        </mxCell>
        <mxCell id="lb9ZCilv8jvgpDcWReZ2-181" value="8" style="text;html=1;strokeColor=none;fillColor=none;align=center;verticalAlign=middle;whiteSpace=wrap;rounded=0;fontSize=17;" vertex="1" parent="1">
          <mxGeometry x="960" y="4770" width="398" height="20" as="geometry" />
        </mxCell>
        <mxCell id="lb9ZCilv8jvgpDcWReZ2-182" value="P" style="rounded=0;whiteSpace=wrap;html=1;fontSize=17;" vertex="1" parent="1">
          <mxGeometry x="960" y="5590" width="398" height="40" as="geometry" />
        </mxCell>
        <mxCell id="lb9ZCilv8jvgpDcWReZ2-183" value="8" style="text;html=1;strokeColor=none;fillColor=none;align=center;verticalAlign=middle;whiteSpace=wrap;rounded=0;fontSize=17;" vertex="1" parent="1">
          <mxGeometry x="960" y="5570" width="398" height="20" as="geometry" />
        </mxCell>
        <mxCell id="lb9ZCilv8jvgpDcWReZ2-184" value="B" style="rounded=0;whiteSpace=wrap;html=1;fontSize=17;" vertex="1" parent="1">
          <mxGeometry x="360" y="4230" width="20" height="40" as="geometry" />
        </mxCell>
        <mxCell id="lb9ZCilv8jvgpDcWReZ2-185" value="9" style="text;html=1;strokeColor=none;fillColor=none;align=center;verticalAlign=middle;whiteSpace=wrap;rounded=0;fontSize=17;" vertex="1" parent="1">
          <mxGeometry x="360" y="4210" width="20" height="20" as="geometry" />
        </mxCell>
        <mxCell id="lb9ZCilv8jvgpDcWReZ2-186" value="H" style="rounded=0;whiteSpace=wrap;html=1;fontSize=17;" vertex="1" parent="1">
          <mxGeometry x="800" y="4310" width="20" height="40" as="geometry" />
        </mxCell>
        <mxCell id="lb9ZCilv8jvgpDcWReZ2-187" value="9" style="text;html=1;strokeColor=none;fillColor=none;align=center;verticalAlign=middle;whiteSpace=wrap;rounded=0;fontSize=17;" vertex="1" parent="1">
          <mxGeometry x="800" y="4290" width="20" height="20" as="geometry" />
        </mxCell>
        <mxCell id="lb9ZCilv8jvgpDcWReZ2-188" value="D" style="rounded=0;whiteSpace=wrap;html=1;fontSize=17;" vertex="1" parent="1">
          <mxGeometry x="1340" y="4470" width="20" height="40" as="geometry" />
        </mxCell>
        <mxCell id="lb9ZCilv8jvgpDcWReZ2-189" value="9" style="text;html=1;strokeColor=none;fillColor=none;align=center;verticalAlign=middle;whiteSpace=wrap;rounded=0;fontSize=17;" vertex="1" parent="1">
          <mxGeometry x="1340" y="4450" width="20" height="20" as="geometry" />
        </mxCell>
        <mxCell id="lb9ZCilv8jvgpDcWReZ2-190" value="G" style="rounded=0;whiteSpace=wrap;html=1;fontSize=17;" vertex="1" parent="1">
          <mxGeometry x="1360" y="4550" width="40" height="40" as="geometry" />
        </mxCell>
        <mxCell id="lb9ZCilv8jvgpDcWReZ2-191" value="9" style="text;html=1;strokeColor=none;fillColor=none;align=center;verticalAlign=middle;whiteSpace=wrap;rounded=0;fontSize=17;" vertex="1" parent="1">
          <mxGeometry x="1360" y="4530" width="40" height="20" as="geometry" />
        </mxCell>
        <mxCell id="lb9ZCilv8jvgpDcWReZ2-192" value="L" style="rounded=0;whiteSpace=wrap;html=1;fontSize=17;" vertex="1" parent="1">
          <mxGeometry x="1400" y="4630" width="40" height="40" as="geometry" />
        </mxCell>
        <mxCell id="lb9ZCilv8jvgpDcWReZ2-193" value="9" style="text;html=1;strokeColor=none;fillColor=none;align=center;verticalAlign=middle;whiteSpace=wrap;rounded=0;fontSize=17;" vertex="1" parent="1">
          <mxGeometry x="1400" y="4610" width="40" height="20" as="geometry" />
        </mxCell>
        <mxCell id="lb9ZCilv8jvgpDcWReZ2-194" value="H" style="rounded=0;whiteSpace=wrap;html=1;fontSize=17;" vertex="1" parent="1">
          <mxGeometry x="1320" y="4310" width="20" height="40" as="geometry" />
        </mxCell>
        <mxCell id="lb9ZCilv8jvgpDcWReZ2-195" value="10" style="text;html=1;strokeColor=none;fillColor=none;align=center;verticalAlign=middle;whiteSpace=wrap;rounded=0;fontSize=17;" vertex="1" parent="1">
          <mxGeometry x="1320" y="4290" width="20" height="20" as="geometry" />
        </mxCell>
        <mxCell id="lb9ZCilv8jvgpDcWReZ2-196" value="K" style="rounded=0;whiteSpace=wrap;html=1;fontSize=17;" vertex="1" parent="1">
          <mxGeometry x="800" y="4390" width="20" height="40" as="geometry" />
        </mxCell>
        <mxCell id="lb9ZCilv8jvgpDcWReZ2-197" value="8" style="text;html=1;strokeColor=none;fillColor=none;align=center;verticalAlign=middle;whiteSpace=wrap;rounded=0;fontSize=17;" vertex="1" parent="1">
          <mxGeometry x="800" y="4370" width="20" height="20" as="geometry" />
        </mxCell>
        <mxCell id="lb9ZCilv8jvgpDcWReZ2-198" value="" style="endArrow=classic;html=1;rounded=0;strokeColor=#808080;dashed=1;jumpStyle=none;startArrow=oval;startFill=1;sketch=0;fontSize=17;exitX=1;exitY=0;exitDx=0;exitDy=0;entryX=0;entryY=1;entryDx=0;entryDy=0;" edge="1" parent="1" source="lb9ZCilv8jvgpDcWReZ2-141" target="lb9ZCilv8jvgpDcWReZ2-81">
          <mxGeometry width="50" height="50" relative="1" as="geometry">
            <mxPoint x="752.13" y="4710" as="sourcePoint" />
            <mxPoint x="760" y="4440" as="targetPoint" />
          </mxGeometry>
        </mxCell>
        <mxCell id="lb9ZCilv8jvgpDcWReZ2-199" value="X/(V-Q)" style="rounded=0;whiteSpace=wrap;html=1;fontSize=17;" vertex="1" parent="1">
          <mxGeometry x="1440" y="5830" width="458" height="40" as="geometry" />
        </mxCell>
        <mxCell id="lb9ZCilv8jvgpDcWReZ2-200" value="9" style="text;html=1;strokeColor=none;fillColor=none;align=center;verticalAlign=middle;whiteSpace=wrap;rounded=0;fontSize=17;" vertex="1" parent="1">
          <mxGeometry x="1440" y="5810" width="458" height="20" as="geometry" />
        </mxCell>
        <mxCell id="lb9ZCilv8jvgpDcWReZ2-201" value="ЗАНЯТ" style="rounded=0;whiteSpace=wrap;html=1;strokeColor=none;shadow=0;sketch=0;fillColor=#f8cecc;glass=0;fontSize=17;" vertex="1" parent="1">
          <mxGeometry x="1280" y="5430" width="620" height="40" as="geometry" />
        </mxCell>
        <mxCell id="lb9ZCilv8jvgpDcWReZ2-202" value="ЗАНЯТ" style="rounded=0;whiteSpace=wrap;html=1;strokeColor=none;shadow=0;sketch=0;fillColor=#f8cecc;glass=0;fontSize=17;" vertex="1" parent="1">
          <mxGeometry x="1340" y="5510" width="560" height="40" as="geometry" />
        </mxCell>
        <mxCell id="lb9ZCilv8jvgpDcWReZ2-203" value="H" style="rounded=0;whiteSpace=wrap;html=1;fontSize=17;" vertex="1" parent="1">
          <mxGeometry x="1340" y="4310" width="20" height="40" as="geometry" />
        </mxCell>
        <mxCell id="lb9ZCilv8jvgpDcWReZ2-204" value="11" style="text;html=1;strokeColor=none;fillColor=none;align=center;verticalAlign=middle;whiteSpace=wrap;rounded=0;fontSize=17;" vertex="1" parent="1">
          <mxGeometry x="1340" y="4290" width="20" height="20" as="geometry" />
        </mxCell>
        <mxCell id="lb9ZCilv8jvgpDcWReZ2-205" value="K" style="rounded=0;whiteSpace=wrap;html=1;fontSize=17;" vertex="1" parent="1">
          <mxGeometry x="1340" y="4390" width="20" height="40" as="geometry" />
        </mxCell>
        <mxCell id="lb9ZCilv8jvgpDcWReZ2-206" value="10" style="text;html=1;strokeColor=none;fillColor=none;align=center;verticalAlign=middle;whiteSpace=wrap;rounded=0;fontSize=17;" vertex="1" parent="1">
          <mxGeometry x="1340" y="4370" width="20" height="20" as="geometry" />
        </mxCell>
        <mxCell id="lb9ZCilv8jvgpDcWReZ2-207" value="D" style="rounded=0;whiteSpace=wrap;html=1;fontSize=17;" vertex="1" parent="1">
          <mxGeometry x="1360" y="4470" width="20" height="40" as="geometry" />
        </mxCell>
        <mxCell id="lb9ZCilv8jvgpDcWReZ2-208" value="10" style="text;html=1;strokeColor=none;fillColor=none;align=center;verticalAlign=middle;whiteSpace=wrap;rounded=0;fontSize=17;" vertex="1" parent="1">
          <mxGeometry x="1360" y="4450" width="20" height="20" as="geometry" />
        </mxCell>
        <mxCell id="lb9ZCilv8jvgpDcWReZ2-209" value="G" style="rounded=0;whiteSpace=wrap;html=1;fontSize=17;" vertex="1" parent="1">
          <mxGeometry x="1400" y="4550" width="40" height="40" as="geometry" />
        </mxCell>
        <mxCell id="lb9ZCilv8jvgpDcWReZ2-210" value="10" style="text;html=1;strokeColor=none;fillColor=none;align=center;verticalAlign=middle;whiteSpace=wrap;rounded=0;fontSize=17;" vertex="1" parent="1">
          <mxGeometry x="1400" y="4530" width="40" height="20" as="geometry" />
        </mxCell>
        <mxCell id="lb9ZCilv8jvgpDcWReZ2-211" value="L" style="rounded=0;whiteSpace=wrap;html=1;fontSize=17;" vertex="1" parent="1">
          <mxGeometry x="1480" y="4630" width="40" height="40" as="geometry" />
        </mxCell>
        <mxCell id="lb9ZCilv8jvgpDcWReZ2-212" value="10" style="text;html=1;strokeColor=none;fillColor=none;align=center;verticalAlign=middle;whiteSpace=wrap;rounded=0;fontSize=17;" vertex="1" parent="1">
          <mxGeometry x="1480" y="4610" width="40" height="20" as="geometry" />
        </mxCell>
        <mxCell id="lb9ZCilv8jvgpDcWReZ2-213" value="L" style="rounded=0;whiteSpace=wrap;html=1;fontSize=17;" vertex="1" parent="1">
          <mxGeometry x="1558" y="4710" width="400" height="40" as="geometry" />
        </mxCell>
        <mxCell id="lb9ZCilv8jvgpDcWReZ2-214" value="11" style="text;html=1;strokeColor=none;fillColor=none;align=center;verticalAlign=middle;whiteSpace=wrap;rounded=0;fontSize=17;" vertex="1" parent="1">
          <mxGeometry x="1560" y="4690" width="398" height="20" as="geometry" />
        </mxCell>
        <mxCell id="lb9ZCilv8jvgpDcWReZ2-215" value="L" style="rounded=0;whiteSpace=wrap;html=1;fontSize=17;" vertex="1" parent="1">
          <mxGeometry x="1560" y="5110" width="398" height="40" as="geometry" />
        </mxCell>
        <mxCell id="lb9ZCilv8jvgpDcWReZ2-216" value="11" style="text;html=1;strokeColor=none;fillColor=none;align=center;verticalAlign=middle;whiteSpace=wrap;rounded=0;fontSize=17;" vertex="1" parent="1">
          <mxGeometry x="1560" y="5090" width="398" height="20" as="geometry" />
        </mxCell>
        <mxCell id="lb9ZCilv8jvgpDcWReZ2-217" value="H" style="rounded=0;whiteSpace=wrap;html=1;fontSize=17;" vertex="1" parent="1">
          <mxGeometry x="1360" y="4310" width="20" height="40" as="geometry" />
        </mxCell>
        <mxCell id="lb9ZCilv8jvgpDcWReZ2-218" value="12" style="text;html=1;strokeColor=none;fillColor=none;align=center;verticalAlign=middle;whiteSpace=wrap;rounded=0;fontSize=17;" vertex="1" parent="1">
          <mxGeometry x="1360" y="4290" width="20" height="20" as="geometry" />
        </mxCell>
        <mxCell id="lb9ZCilv8jvgpDcWReZ2-219" value="H" style="rounded=0;whiteSpace=wrap;html=1;fontSize=17;" vertex="1" parent="1">
          <mxGeometry x="1380" y="4310" width="20" height="40" as="geometry" />
        </mxCell>
        <mxCell id="lb9ZCilv8jvgpDcWReZ2-220" value="13" style="text;html=1;strokeColor=none;fillColor=none;align=center;verticalAlign=middle;whiteSpace=wrap;rounded=0;fontSize=17;" vertex="1" parent="1">
          <mxGeometry x="1380" y="4290" width="20" height="20" as="geometry" />
        </mxCell>
        <mxCell id="lb9ZCilv8jvgpDcWReZ2-221" value="K" style="rounded=0;whiteSpace=wrap;html=1;fontSize=17;" vertex="1" parent="1">
          <mxGeometry x="1360" y="4390" width="20" height="40" as="geometry" />
        </mxCell>
        <mxCell id="lb9ZCilv8jvgpDcWReZ2-222" value="11" style="text;html=1;strokeColor=none;fillColor=none;align=center;verticalAlign=middle;whiteSpace=wrap;rounded=0;fontSize=17;" vertex="1" parent="1">
          <mxGeometry x="1360" y="4370" width="20" height="20" as="geometry" />
        </mxCell>
        <mxCell id="lb9ZCilv8jvgpDcWReZ2-223" value="K" style="rounded=0;whiteSpace=wrap;html=1;fontSize=17;" vertex="1" parent="1">
          <mxGeometry x="1380" y="4390" width="20" height="40" as="geometry" />
        </mxCell>
        <mxCell id="lb9ZCilv8jvgpDcWReZ2-224" value="12" style="text;html=1;strokeColor=none;fillColor=none;align=center;verticalAlign=middle;whiteSpace=wrap;rounded=0;fontSize=17;" vertex="1" parent="1">
          <mxGeometry x="1380" y="4370" width="20" height="20" as="geometry" />
        </mxCell>
        <mxCell id="lb9ZCilv8jvgpDcWReZ2-225" value="D" style="rounded=0;whiteSpace=wrap;html=1;fontSize=17;" vertex="1" parent="1">
          <mxGeometry x="1380" y="4470" width="20" height="40" as="geometry" />
        </mxCell>
        <mxCell id="lb9ZCilv8jvgpDcWReZ2-226" value="11" style="text;html=1;strokeColor=none;fillColor=none;align=center;verticalAlign=middle;whiteSpace=wrap;rounded=0;fontSize=17;" vertex="1" parent="1">
          <mxGeometry x="1380" y="4450" width="20" height="20" as="geometry" />
        </mxCell>
        <mxCell id="lb9ZCilv8jvgpDcWReZ2-227" value="D" style="rounded=0;whiteSpace=wrap;html=1;fontSize=17;" vertex="1" parent="1">
          <mxGeometry x="1400" y="4470" width="20" height="40" as="geometry" />
        </mxCell>
        <mxCell id="lb9ZCilv8jvgpDcWReZ2-228" value="12" style="text;html=1;strokeColor=none;fillColor=none;align=center;verticalAlign=middle;whiteSpace=wrap;rounded=0;fontSize=17;" vertex="1" parent="1">
          <mxGeometry x="1400" y="4450" width="20" height="20" as="geometry" />
        </mxCell>
        <mxCell id="lb9ZCilv8jvgpDcWReZ2-229" value="G" style="rounded=0;whiteSpace=wrap;html=1;fontSize=17;" vertex="1" parent="1">
          <mxGeometry x="1440" y="4550" width="40" height="40" as="geometry" />
        </mxCell>
        <mxCell id="lb9ZCilv8jvgpDcWReZ2-230" value="11" style="text;html=1;strokeColor=none;fillColor=none;align=center;verticalAlign=middle;whiteSpace=wrap;rounded=0;fontSize=17;" vertex="1" parent="1">
          <mxGeometry x="1440" y="4530" width="40" height="20" as="geometry" />
        </mxCell>
        <mxCell id="lb9ZCilv8jvgpDcWReZ2-231" value="G" style="rounded=0;whiteSpace=wrap;html=1;fontSize=17;" vertex="1" parent="1">
          <mxGeometry x="1480" y="4550" width="40" height="40" as="geometry" />
        </mxCell>
        <mxCell id="lb9ZCilv8jvgpDcWReZ2-232" value="12" style="text;html=1;strokeColor=none;fillColor=none;align=center;verticalAlign=middle;whiteSpace=wrap;rounded=0;fontSize=17;" vertex="1" parent="1">
          <mxGeometry x="1480" y="4530" width="40" height="20" as="geometry" />
        </mxCell>
        <mxCell id="lb9ZCilv8jvgpDcWReZ2-233" value="L" style="rounded=0;whiteSpace=wrap;html=1;fontSize=17;" vertex="1" parent="1">
          <mxGeometry x="1520" y="4630" width="40" height="40" as="geometry" />
        </mxCell>
        <mxCell id="lb9ZCilv8jvgpDcWReZ2-234" value="11" style="text;html=1;strokeColor=none;fillColor=none;align=center;verticalAlign=middle;whiteSpace=wrap;rounded=0;fontSize=17;" vertex="1" parent="1">
          <mxGeometry x="1520" y="4610" width="40" height="20" as="geometry" />
        </mxCell>
        <mxCell id="lb9ZCilv8jvgpDcWReZ2-235" value="L" style="rounded=0;whiteSpace=wrap;html=1;fontSize=17;" vertex="1" parent="1">
          <mxGeometry x="1558" y="4630" width="40" height="40" as="geometry" />
        </mxCell>
        <mxCell id="lb9ZCilv8jvgpDcWReZ2-236" value="12" style="text;html=1;strokeColor=none;fillColor=none;align=center;verticalAlign=middle;whiteSpace=wrap;rounded=0;fontSize=17;" vertex="1" parent="1">
          <mxGeometry x="1558" y="4610" width="40" height="20" as="geometry" />
        </mxCell>
        <mxCell id="lb9ZCilv8jvgpDcWReZ2-237" value="W" style="rounded=0;whiteSpace=wrap;html=1;fontSize=17;" vertex="1" parent="1">
          <mxGeometry x="1598" y="4790" width="400" height="40" as="geometry" />
        </mxCell>
        <mxCell id="lb9ZCilv8jvgpDcWReZ2-238" value="12" style="text;html=1;strokeColor=none;fillColor=none;align=center;verticalAlign=middle;whiteSpace=wrap;rounded=0;fontSize=17;" vertex="1" parent="1">
          <mxGeometry x="1598" y="4770" width="400" height="20" as="geometry" />
        </mxCell>
        <mxCell id="lb9ZCilv8jvgpDcWReZ2-239" value="W" style="rounded=0;whiteSpace=wrap;html=1;fontSize=17;" vertex="1" parent="1">
          <mxGeometry x="1598" y="5190" width="400" height="40" as="geometry" />
        </mxCell>
        <mxCell id="lb9ZCilv8jvgpDcWReZ2-240" value="12" style="text;html=1;strokeColor=none;fillColor=none;align=center;verticalAlign=middle;whiteSpace=wrap;rounded=0;fontSize=17;" vertex="1" parent="1">
          <mxGeometry x="1598" y="5170" width="402" height="20" as="geometry" />
        </mxCell>
        <mxCell id="lb9ZCilv8jvgpDcWReZ2-241" value="Y" style="rounded=0;whiteSpace=wrap;html=1;fontSize=17;" vertex="1" parent="1">
          <mxGeometry x="1638" y="4870" width="400" height="40" as="geometry" />
        </mxCell>
        <mxCell id="lb9ZCilv8jvgpDcWReZ2-242" value="13" style="text;html=1;strokeColor=none;fillColor=none;align=center;verticalAlign=middle;whiteSpace=wrap;rounded=0;fontSize=17;" vertex="1" parent="1">
          <mxGeometry x="1638" y="4850" width="400" height="20" as="geometry" />
        </mxCell>
        <mxCell id="lb9ZCilv8jvgpDcWReZ2-243" value="Y" style="rounded=0;whiteSpace=wrap;html=1;fontSize=17;" vertex="1" parent="1">
          <mxGeometry x="1638" y="5350" width="400" height="40" as="geometry" />
        </mxCell>
        <mxCell id="lb9ZCilv8jvgpDcWReZ2-244" value="13" style="text;html=1;strokeColor=none;fillColor=none;align=center;verticalAlign=middle;whiteSpace=wrap;rounded=0;fontSize=17;" vertex="1" parent="1">
          <mxGeometry x="1638" y="5330" width="392" height="20" as="geometry" />
        </mxCell>
        <mxCell id="lb9ZCilv8jvgpDcWReZ2-245" value="H" style="rounded=0;whiteSpace=wrap;html=1;fontSize=17;" vertex="1" parent="1">
          <mxGeometry x="1400" y="4310" width="20" height="40" as="geometry" />
        </mxCell>
        <mxCell id="lb9ZCilv8jvgpDcWReZ2-246" value="14" style="text;html=1;strokeColor=none;fillColor=none;align=center;verticalAlign=middle;whiteSpace=wrap;rounded=0;fontSize=17;" vertex="1" parent="1">
          <mxGeometry x="1400" y="4290" width="20" height="20" as="geometry" />
        </mxCell>
        <mxCell id="lb9ZCilv8jvgpDcWReZ2-247" value="K" style="rounded=0;whiteSpace=wrap;html=1;fontSize=17;" vertex="1" parent="1">
          <mxGeometry x="1400" y="4390" width="20" height="40" as="geometry" />
        </mxCell>
        <mxCell id="lb9ZCilv8jvgpDcWReZ2-248" value="13" style="text;html=1;strokeColor=none;fillColor=none;align=center;verticalAlign=middle;whiteSpace=wrap;rounded=0;fontSize=17;" vertex="1" parent="1">
          <mxGeometry x="1400" y="4370" width="20" height="20" as="geometry" />
        </mxCell>
        <mxCell id="lb9ZCilv8jvgpDcWReZ2-249" value="D" style="rounded=0;whiteSpace=wrap;html=1;fontSize=17;" vertex="1" parent="1">
          <mxGeometry x="1420" y="4470" width="20" height="40" as="geometry" />
        </mxCell>
        <mxCell id="lb9ZCilv8jvgpDcWReZ2-250" value="13" style="text;html=1;strokeColor=none;fillColor=none;align=center;verticalAlign=middle;whiteSpace=wrap;rounded=0;fontSize=17;" vertex="1" parent="1">
          <mxGeometry x="1420" y="4450" width="20" height="20" as="geometry" />
        </mxCell>
        <mxCell id="lb9ZCilv8jvgpDcWReZ2-251" value="G" style="rounded=0;whiteSpace=wrap;html=1;fontSize=17;" vertex="1" parent="1">
          <mxGeometry x="1520" y="4550" width="40" height="40" as="geometry" />
        </mxCell>
        <mxCell id="lb9ZCilv8jvgpDcWReZ2-252" value="13" style="text;html=1;strokeColor=none;fillColor=none;align=center;verticalAlign=middle;whiteSpace=wrap;rounded=0;fontSize=17;" vertex="1" parent="1">
          <mxGeometry x="1520" y="4530" width="40" height="20" as="geometry" />
        </mxCell>
        <mxCell id="lb9ZCilv8jvgpDcWReZ2-253" value="L" style="rounded=0;whiteSpace=wrap;html=1;fontSize=17;" vertex="1" parent="1">
          <mxGeometry x="1598" y="4630" width="40" height="40" as="geometry" />
        </mxCell>
        <mxCell id="lb9ZCilv8jvgpDcWReZ2-254" value="13" style="text;html=1;strokeColor=none;fillColor=none;align=center;verticalAlign=middle;whiteSpace=wrap;rounded=0;fontSize=17;" vertex="1" parent="1">
          <mxGeometry x="1598" y="4610" width="40" height="20" as="geometry" />
        </mxCell>
        <mxCell id="lb9ZCilv8jvgpDcWReZ2-259" value="ЗАНЯТ" style="rounded=0;whiteSpace=wrap;html=1;strokeColor=none;shadow=0;sketch=0;fillColor=#f8cecc;glass=0;fontSize=17;" vertex="1" parent="1">
          <mxGeometry x="1360" y="5590" width="1120" height="40" as="geometry" />
        </mxCell>
        <mxCell id="lb9ZCilv8jvgpDcWReZ2-260" value="" style="endArrow=classic;html=1;rounded=0;strokeColor=#808080;dashed=1;jumpStyle=none;startArrow=oval;startFill=1;sketch=0;fontSize=17;" edge="1" parent="1">
          <mxGeometry width="50" height="50" relative="1" as="geometry">
            <mxPoint x="1519.17" y="5830" as="sourcePoint" />
            <mxPoint x="1520" y="5712.35294117647" as="targetPoint" />
          </mxGeometry>
        </mxCell>
        <mxCell id="lb9ZCilv8jvgpDcWReZ2-261" value="ЗАНЯТ" style="rounded=0;whiteSpace=wrap;html=1;strokeColor=none;shadow=0;sketch=0;fillColor=#f8cecc;glass=0;fontSize=17;" vertex="1" parent="1">
          <mxGeometry x="1958" y="5110" width="522" height="40" as="geometry" />
        </mxCell>
        <mxCell id="lb9ZCilv8jvgpDcWReZ2-262" value="" style="rounded=0;whiteSpace=wrap;html=1;strokeColor=none;shadow=0;sketch=0;fillColor=#f8cecc;glass=0;fontSize=17;" vertex="1" parent="1">
          <mxGeometry x="1440" y="4630" width="40" height="40" as="geometry" />
        </mxCell>
        <mxCell id="lb9ZCilv8jvgpDcWReZ2-263" value="U*Z + X/(V-Q)" style="rounded=0;whiteSpace=wrap;html=1;fontSize=17;" vertex="1" parent="1">
          <mxGeometry x="1520" y="5670" width="398" height="40" as="geometry" />
        </mxCell>
        <mxCell id="lb9ZCilv8jvgpDcWReZ2-264" value="10" style="text;html=1;strokeColor=none;fillColor=none;align=center;verticalAlign=middle;whiteSpace=wrap;rounded=0;fontSize=17;" vertex="1" parent="1">
          <mxGeometry x="1520" y="5650" width="398" height="20" as="geometry" />
        </mxCell>
        <mxCell id="lb9ZCilv8jvgpDcWReZ2-265" value="U*Z + X/(V-Q)" style="rounded=0;whiteSpace=wrap;html=1;fontSize=17;" vertex="1" parent="1">
          <mxGeometry x="1540" y="5030" width="398" height="40" as="geometry" />
        </mxCell>
        <mxCell id="lb9ZCilv8jvgpDcWReZ2-266" value="10" style="text;html=1;strokeColor=none;fillColor=none;align=center;verticalAlign=middle;whiteSpace=wrap;rounded=0;fontSize=17;" vertex="1" parent="1">
          <mxGeometry x="1540" y="5010" width="398" height="20" as="geometry" />
        </mxCell>
        <mxCell id="lb9ZCilv8jvgpDcWReZ2-267" value="ЗАНЯТ" style="rounded=0;whiteSpace=wrap;html=1;strokeColor=none;shadow=0;sketch=0;fillColor=#f8cecc;glass=0;fontSize=17;" vertex="1" parent="1">
          <mxGeometry x="940" y="5270" width="980" height="40" as="geometry" />
        </mxCell>
        <mxCell id="lb9ZCilv8jvgpDcWReZ2-274" value="H" style="rounded=0;whiteSpace=wrap;html=1;fontSize=17;" vertex="1" parent="1">
          <mxGeometry x="1918" y="4310" width="20" height="40" as="geometry" />
        </mxCell>
        <mxCell id="lb9ZCilv8jvgpDcWReZ2-275" value="15" style="text;html=1;strokeColor=none;fillColor=none;align=center;verticalAlign=middle;whiteSpace=wrap;rounded=0;fontSize=17;" vertex="1" parent="1">
          <mxGeometry x="1918" y="4290" width="20" height="20" as="geometry" />
        </mxCell>
        <mxCell id="lb9ZCilv8jvgpDcWReZ2-276" value="H" style="rounded=0;whiteSpace=wrap;html=1;fontSize=17;" vertex="1" parent="1">
          <mxGeometry x="1938" y="4310" width="20" height="40" as="geometry" />
        </mxCell>
        <mxCell id="lb9ZCilv8jvgpDcWReZ2-277" value="16" style="text;html=1;strokeColor=none;fillColor=none;align=center;verticalAlign=middle;whiteSpace=wrap;rounded=0;fontSize=17;" vertex="1" parent="1">
          <mxGeometry x="1938" y="4290" width="20" height="20" as="geometry" />
        </mxCell>
        <mxCell id="lb9ZCilv8jvgpDcWReZ2-278" value="K" style="rounded=0;whiteSpace=wrap;html=1;fontSize=17;" vertex="1" parent="1">
          <mxGeometry x="1918" y="4390" width="20" height="40" as="geometry" />
        </mxCell>
        <mxCell id="lb9ZCilv8jvgpDcWReZ2-279" value="14" style="text;html=1;strokeColor=none;fillColor=none;align=center;verticalAlign=middle;whiteSpace=wrap;rounded=0;fontSize=17;" vertex="1" parent="1">
          <mxGeometry x="1918" y="4370" width="20" height="20" as="geometry" />
        </mxCell>
        <mxCell id="lb9ZCilv8jvgpDcWReZ2-280" value="K" style="rounded=0;whiteSpace=wrap;html=1;fontSize=17;" vertex="1" parent="1">
          <mxGeometry x="1938" y="4390" width="20" height="40" as="geometry" />
        </mxCell>
        <mxCell id="lb9ZCilv8jvgpDcWReZ2-281" value="15" style="text;html=1;strokeColor=none;fillColor=none;align=center;verticalAlign=middle;whiteSpace=wrap;rounded=0;fontSize=17;" vertex="1" parent="1">
          <mxGeometry x="1938" y="4370" width="20" height="20" as="geometry" />
        </mxCell>
        <mxCell id="lb9ZCilv8jvgpDcWReZ2-282" value="D" style="rounded=0;whiteSpace=wrap;html=1;fontSize=17;" vertex="1" parent="1">
          <mxGeometry x="1938" y="4470" width="20" height="40" as="geometry" />
        </mxCell>
        <mxCell id="lb9ZCilv8jvgpDcWReZ2-283" value="14" style="text;html=1;strokeColor=none;fillColor=none;align=center;verticalAlign=middle;whiteSpace=wrap;rounded=0;fontSize=17;" vertex="1" parent="1">
          <mxGeometry x="1938" y="4450" width="20" height="20" as="geometry" />
        </mxCell>
        <mxCell id="lb9ZCilv8jvgpDcWReZ2-284" value="D" style="rounded=0;whiteSpace=wrap;html=1;fontSize=17;" vertex="1" parent="1">
          <mxGeometry x="1958" y="4470" width="20" height="40" as="geometry" />
        </mxCell>
        <mxCell id="lb9ZCilv8jvgpDcWReZ2-285" value="15" style="text;html=1;strokeColor=none;fillColor=none;align=center;verticalAlign=middle;whiteSpace=wrap;rounded=0;fontSize=17;" vertex="1" parent="1">
          <mxGeometry x="1958" y="4450" width="20" height="20" as="geometry" />
        </mxCell>
        <mxCell id="lb9ZCilv8jvgpDcWReZ2-286" value="G" style="rounded=0;whiteSpace=wrap;html=1;fontSize=17;" vertex="1" parent="1">
          <mxGeometry x="1958" y="4550" width="40" height="40" as="geometry" />
        </mxCell>
        <mxCell id="lb9ZCilv8jvgpDcWReZ2-287" value="14" style="text;html=1;strokeColor=none;fillColor=none;align=center;verticalAlign=middle;whiteSpace=wrap;rounded=0;fontSize=17;" vertex="1" parent="1">
          <mxGeometry x="1958" y="4530" width="40" height="20" as="geometry" />
        </mxCell>
        <mxCell id="lb9ZCilv8jvgpDcWReZ2-288" value="G" style="rounded=0;whiteSpace=wrap;html=1;fontSize=17;" vertex="1" parent="1">
          <mxGeometry x="1998" y="4550" width="40" height="40" as="geometry" />
        </mxCell>
        <mxCell id="lb9ZCilv8jvgpDcWReZ2-289" value="15" style="text;html=1;strokeColor=none;fillColor=none;align=center;verticalAlign=middle;whiteSpace=wrap;rounded=0;fontSize=17;" vertex="1" parent="1">
          <mxGeometry x="1998" y="4530" width="40" height="20" as="geometry" />
        </mxCell>
        <mxCell id="lb9ZCilv8jvgpDcWReZ2-290" value="L" style="rounded=0;whiteSpace=wrap;html=1;fontSize=17;" vertex="1" parent="1">
          <mxGeometry x="1998" y="4630" width="40" height="40" as="geometry" />
        </mxCell>
        <mxCell id="lb9ZCilv8jvgpDcWReZ2-291" value="14" style="text;html=1;strokeColor=none;fillColor=none;align=center;verticalAlign=middle;whiteSpace=wrap;rounded=0;fontSize=17;" vertex="1" parent="1">
          <mxGeometry x="1998" y="4610" width="40" height="20" as="geometry" />
        </mxCell>
        <mxCell id="lb9ZCilv8jvgpDcWReZ2-292" value="L" style="rounded=0;whiteSpace=wrap;html=1;fontSize=17;" vertex="1" parent="1">
          <mxGeometry x="2058" y="4630" width="40" height="40" as="geometry" />
        </mxCell>
        <mxCell id="lb9ZCilv8jvgpDcWReZ2-293" value="15" style="text;html=1;strokeColor=none;fillColor=none;align=center;verticalAlign=middle;whiteSpace=wrap;rounded=0;fontSize=17;" vertex="1" parent="1">
          <mxGeometry x="2058" y="4610" width="40" height="20" as="geometry" />
        </mxCell>
        <mxCell id="lb9ZCilv8jvgpDcWReZ2-298" value="15" style="text;html=1;strokeColor=none;fillColor=none;align=center;verticalAlign=middle;whiteSpace=wrap;rounded=0;fontSize=17;" vertex="1" parent="1">
          <mxGeometry x="2118" y="5250" width="392" height="20" as="geometry" />
        </mxCell>
        <mxCell id="lb9ZCilv8jvgpDcWReZ2-300" value="" style="rounded=0;whiteSpace=wrap;html=1;strokeColor=none;shadow=0;sketch=0;fillColor=#f8cecc;glass=0;fontSize=17;" vertex="1" parent="1">
          <mxGeometry x="2038" y="4630" width="20" height="40" as="geometry" />
        </mxCell>
        <mxCell id="lb9ZCilv8jvgpDcWReZ2-301" value="ЗАНЯТ" style="rounded=0;whiteSpace=wrap;html=1;strokeColor=none;shadow=0;sketch=0;fillColor=#f8cecc;glass=0;fontSize=17;" vertex="1" parent="1">
          <mxGeometry x="2000" y="5190" width="500" height="40" as="geometry" />
        </mxCell>
        <mxCell id="lb9ZCilv8jvgpDcWReZ2-302" value="H" style="rounded=0;whiteSpace=wrap;html=1;fontSize=17;" vertex="1" parent="1">
          <mxGeometry x="2500" y="4310" width="20" height="40" as="geometry" />
        </mxCell>
        <mxCell id="lb9ZCilv8jvgpDcWReZ2-303" value="17" style="text;html=1;strokeColor=none;fillColor=none;align=center;verticalAlign=middle;whiteSpace=wrap;rounded=0;fontSize=17;" vertex="1" parent="1">
          <mxGeometry x="2500" y="4290" width="20" height="20" as="geometry" />
        </mxCell>
        <mxCell id="lb9ZCilv8jvgpDcWReZ2-304" value="K" style="rounded=0;whiteSpace=wrap;html=1;fontSize=17;" vertex="1" parent="1">
          <mxGeometry x="2500" y="4390" width="20" height="40" as="geometry" />
        </mxCell>
        <mxCell id="lb9ZCilv8jvgpDcWReZ2-305" value="16" style="text;html=1;strokeColor=none;fillColor=none;align=center;verticalAlign=middle;whiteSpace=wrap;rounded=0;fontSize=17;" vertex="1" parent="1">
          <mxGeometry x="2500" y="4375" width="20" height="10" as="geometry" />
        </mxCell>
        <mxCell id="lb9ZCilv8jvgpDcWReZ2-306" value="D" style="rounded=0;whiteSpace=wrap;html=1;fontSize=17;" vertex="1" parent="1">
          <mxGeometry x="2520" y="4470" width="20" height="40" as="geometry" />
        </mxCell>
        <mxCell id="lb9ZCilv8jvgpDcWReZ2-307" value="16" style="text;html=1;strokeColor=none;fillColor=none;align=center;verticalAlign=middle;whiteSpace=wrap;rounded=0;fontSize=17;" vertex="1" parent="1">
          <mxGeometry x="2520" y="4450" width="20" height="20" as="geometry" />
        </mxCell>
        <mxCell id="lb9ZCilv8jvgpDcWReZ2-308" value="G" style="rounded=0;whiteSpace=wrap;html=1;fontSize=17;" vertex="1" parent="1">
          <mxGeometry x="2540" y="4550" width="40" height="40" as="geometry" />
        </mxCell>
        <mxCell id="lb9ZCilv8jvgpDcWReZ2-309" value="16" style="text;html=1;strokeColor=none;fillColor=none;align=center;verticalAlign=middle;whiteSpace=wrap;rounded=0;fontSize=17;" vertex="1" parent="1">
          <mxGeometry x="2540" y="4530" width="40" height="20" as="geometry" />
        </mxCell>
        <mxCell id="lb9ZCilv8jvgpDcWReZ2-310" value="L" style="rounded=0;whiteSpace=wrap;html=1;fontSize=17;" vertex="1" parent="1">
          <mxGeometry x="2580" y="4630" width="40" height="40" as="geometry" />
        </mxCell>
        <mxCell id="lb9ZCilv8jvgpDcWReZ2-311" value="16" style="text;html=1;strokeColor=none;fillColor=none;align=center;verticalAlign=middle;whiteSpace=wrap;rounded=0;fontSize=17;" vertex="1" parent="1">
          <mxGeometry x="2580" y="4610" width="40" height="20" as="geometry" />
        </mxCell>
        <mxCell id="lb9ZCilv8jvgpDcWReZ2-312" value="K" style="rounded=0;whiteSpace=wrap;html=1;fontSize=17;" vertex="1" parent="1">
          <mxGeometry x="2520" y="4390" width="20" height="40" as="geometry" />
        </mxCell>
        <mxCell id="lb9ZCilv8jvgpDcWReZ2-313" value="17" style="text;html=1;strokeColor=none;fillColor=none;align=center;verticalAlign=middle;whiteSpace=wrap;rounded=0;fontSize=17;" vertex="1" parent="1">
          <mxGeometry x="2520" y="4370" width="20" height="20" as="geometry" />
        </mxCell>
        <mxCell id="lb9ZCilv8jvgpDcWReZ2-314" value="D" style="rounded=0;whiteSpace=wrap;html=1;fontSize=17;" vertex="1" parent="1">
          <mxGeometry x="2540" y="4470" width="20" height="40" as="geometry" />
        </mxCell>
        <mxCell id="lb9ZCilv8jvgpDcWReZ2-315" value="17" style="text;html=1;strokeColor=none;fillColor=none;align=center;verticalAlign=middle;whiteSpace=wrap;rounded=0;fontSize=17;" vertex="1" parent="1">
          <mxGeometry x="2540" y="4450" width="20" height="20" as="geometry" />
        </mxCell>
        <mxCell id="lb9ZCilv8jvgpDcWReZ2-316" value="G" style="rounded=0;whiteSpace=wrap;html=1;fontSize=17;" vertex="1" parent="1">
          <mxGeometry x="2580" y="4550" width="40" height="40" as="geometry" />
        </mxCell>
        <mxCell id="lb9ZCilv8jvgpDcWReZ2-317" value="17" style="text;html=1;strokeColor=none;fillColor=none;align=center;verticalAlign=middle;whiteSpace=wrap;rounded=0;fontSize=17;" vertex="1" parent="1">
          <mxGeometry x="2580" y="4530" width="40" height="20" as="geometry" />
        </mxCell>
        <mxCell id="lb9ZCilv8jvgpDcWReZ2-318" value="H" style="rounded=0;whiteSpace=wrap;html=1;fontSize=17;" vertex="1" parent="1">
          <mxGeometry x="2520" y="4310" width="20" height="40" as="geometry" />
        </mxCell>
        <mxCell id="lb9ZCilv8jvgpDcWReZ2-319" value="18" style="text;html=1;strokeColor=none;fillColor=none;align=center;verticalAlign=middle;whiteSpace=wrap;rounded=0;fontSize=17;" vertex="1" parent="1">
          <mxGeometry x="2520" y="4290" width="20" height="20" as="geometry" />
        </mxCell>
        <mxCell id="lb9ZCilv8jvgpDcWReZ2-320" value="L" style="rounded=0;whiteSpace=wrap;html=1;fontSize=17;" vertex="1" parent="1">
          <mxGeometry x="2660" y="4630" width="40" height="40" as="geometry" />
        </mxCell>
        <mxCell id="lb9ZCilv8jvgpDcWReZ2-321" value="17" style="text;html=1;strokeColor=none;fillColor=none;align=center;verticalAlign=middle;whiteSpace=wrap;rounded=0;fontSize=17;" vertex="1" parent="1">
          <mxGeometry x="2660" y="4610" width="40" height="20" as="geometry" />
        </mxCell>
        <mxCell id="lb9ZCilv8jvgpDcWReZ2-323" value="16" style="text;html=1;strokeColor=none;fillColor=none;align=center;verticalAlign=middle;whiteSpace=wrap;rounded=0;fontSize=17;" vertex="1" parent="1">
          <mxGeometry x="2618" y="5810" width="460" height="20" as="geometry" />
        </mxCell>
        <mxCell id="lb9ZCilv8jvgpDcWReZ2-326" value="" style="rounded=0;whiteSpace=wrap;html=1;strokeColor=none;shadow=0;sketch=0;fillColor=#f8cecc;glass=0;fontSize=17;" vertex="1" parent="1">
          <mxGeometry x="2620" y="4630" width="40" height="40" as="geometry" />
        </mxCell>
        <mxCell id="lb9ZCilv8jvgpDcWReZ2-327" value="ЗАНЯТ" style="rounded=0;whiteSpace=wrap;html=1;strokeColor=none;shadow=0;sketch=0;fillColor=#f8cecc;glass=0;fontSize=17;" vertex="1" parent="1">
          <mxGeometry x="2418" y="5270" width="570" height="40" as="geometry" />
        </mxCell>
        <mxCell id="lb9ZCilv8jvgpDcWReZ2-328" value="ЗАНЯТ" style="rounded=0;whiteSpace=wrap;html=1;strokeColor=none;shadow=0;sketch=0;fillColor=#f8cecc;glass=0;fontSize=17;" vertex="1" parent="1">
          <mxGeometry x="2040" y="5350" width="1040" height="40" as="geometry" />
        </mxCell>
        <mxCell id="lb9ZCilv8jvgpDcWReZ2-329" value="ЗАНЯТ" style="rounded=0;whiteSpace=wrap;html=1;strokeColor=none;shadow=0;sketch=0;fillColor=#f8cecc;glass=0;fontSize=17;" vertex="1" parent="1">
          <mxGeometry x="1938" y="5030" width="1162" height="40" as="geometry" />
        </mxCell>
        <mxCell id="lb9ZCilv8jvgpDcWReZ2-335" value="17" style="text;html=1;strokeColor=none;fillColor=none;align=center;verticalAlign=middle;whiteSpace=wrap;rounded=0;fontSize=17;" vertex="1" parent="1">
          <mxGeometry x="2720" y="5090" width="400" height="20" as="geometry" />
        </mxCell>
        <mxCell id="lb9ZCilv8jvgpDcWReZ2-336" value="17" style="text;html=1;strokeColor=none;fillColor=none;align=center;verticalAlign=middle;whiteSpace=wrap;rounded=0;fontSize=17;" vertex="1" parent="1">
          <mxGeometry x="2700" y="5650" width="400" height="20" as="geometry" />
        </mxCell>
        <mxCell id="lb9ZCilv8jvgpDcWReZ2-338" value="K" style="rounded=0;whiteSpace=wrap;html=1;fontSize=17;" vertex="1" parent="1">
          <mxGeometry x="2740" y="4390" width="20" height="40" as="geometry" />
        </mxCell>
        <mxCell id="lb9ZCilv8jvgpDcWReZ2-339" value="18" style="text;html=1;strokeColor=none;fillColor=none;align=center;verticalAlign=middle;whiteSpace=wrap;rounded=0;fontSize=17;" vertex="1" parent="1">
          <mxGeometry x="2740" y="4370" width="20" height="10" as="geometry" />
        </mxCell>
        <mxCell id="lb9ZCilv8jvgpDcWReZ2-340" value="D" style="rounded=0;whiteSpace=wrap;html=1;fontSize=17;" vertex="1" parent="1">
          <mxGeometry x="2760" y="4470" width="20" height="40" as="geometry" />
        </mxCell>
        <mxCell id="lb9ZCilv8jvgpDcWReZ2-341" value="18" style="text;html=1;strokeColor=none;fillColor=none;align=center;verticalAlign=middle;whiteSpace=wrap;rounded=0;fontSize=17;" vertex="1" parent="1">
          <mxGeometry x="2760" y="4450" width="20" height="20" as="geometry" />
        </mxCell>
        <mxCell id="lb9ZCilv8jvgpDcWReZ2-342" value="G" style="rounded=0;whiteSpace=wrap;html=1;fontSize=17;" vertex="1" parent="1">
          <mxGeometry x="2780" y="4550" width="40" height="40" as="geometry" />
        </mxCell>
        <mxCell id="lb9ZCilv8jvgpDcWReZ2-343" value="18" style="text;html=1;strokeColor=none;fillColor=none;align=center;verticalAlign=middle;whiteSpace=wrap;rounded=0;fontSize=17;" vertex="1" parent="1">
          <mxGeometry x="2780" y="4530" width="40" height="20" as="geometry" />
        </mxCell>
        <mxCell id="lb9ZCilv8jvgpDcWReZ2-344" value="L" style="rounded=0;whiteSpace=wrap;html=1;fontSize=17;" vertex="1" parent="1">
          <mxGeometry x="2820" y="4630" width="40" height="40" as="geometry" />
        </mxCell>
        <mxCell id="lb9ZCilv8jvgpDcWReZ2-345" value="18" style="text;html=1;strokeColor=none;fillColor=none;align=center;verticalAlign=middle;whiteSpace=wrap;rounded=0;fontSize=17;" vertex="1" parent="1">
          <mxGeometry x="2820" y="4610" width="40" height="20" as="geometry" />
        </mxCell>
        <mxCell id="lb9ZCilv8jvgpDcWReZ2-347" value="S" style="rounded=0;whiteSpace=wrap;html=1;fontSize=17;" vertex="1" parent="1">
          <mxGeometry x="2860" y="4710" width="400" height="40" as="geometry" />
        </mxCell>
        <mxCell id="lb9ZCilv8jvgpDcWReZ2-348" value="18" style="text;html=1;strokeColor=none;fillColor=none;align=center;verticalAlign=middle;whiteSpace=wrap;rounded=0;fontSize=17;" vertex="1" parent="1">
          <mxGeometry x="2860" y="4690" width="400" height="20" as="geometry" />
        </mxCell>
        <mxCell id="lb9ZCilv8jvgpDcWReZ2-349" value="B" style="rounded=0;whiteSpace=wrap;html=1;fontSize=17;" vertex="1" parent="1">
          <mxGeometry x="380" y="4230" width="20" height="40" as="geometry" />
        </mxCell>
        <mxCell id="lb9ZCilv8jvgpDcWReZ2-350" value="B" style="rounded=0;whiteSpace=wrap;html=1;fontSize=17;" vertex="1" parent="1">
          <mxGeometry x="400" y="4230" width="20" height="40" as="geometry" />
        </mxCell>
        <mxCell id="lb9ZCilv8jvgpDcWReZ2-351" value="B" style="rounded=0;whiteSpace=wrap;html=1;fontSize=17;" vertex="1" parent="1">
          <mxGeometry x="420" y="4230" width="20" height="40" as="geometry" />
        </mxCell>
        <mxCell id="lb9ZCilv8jvgpDcWReZ2-352" value="B" style="rounded=0;whiteSpace=wrap;html=1;fontSize=17;" vertex="1" parent="1">
          <mxGeometry x="440" y="4230" width="20" height="40" as="geometry" />
        </mxCell>
        <mxCell id="lb9ZCilv8jvgpDcWReZ2-353" value="B" style="rounded=0;whiteSpace=wrap;html=1;fontSize=17;" vertex="1" parent="1">
          <mxGeometry x="460" y="4230" width="20" height="40" as="geometry" />
        </mxCell>
        <mxCell id="lb9ZCilv8jvgpDcWReZ2-354" value="B" style="rounded=0;whiteSpace=wrap;html=1;fontSize=17;" vertex="1" parent="1">
          <mxGeometry x="480" y="4230" width="20" height="40" as="geometry" />
        </mxCell>
        <mxCell id="lb9ZCilv8jvgpDcWReZ2-355" value="B" style="rounded=0;whiteSpace=wrap;html=1;fontSize=17;" vertex="1" parent="1">
          <mxGeometry x="500" y="4230" width="20" height="40" as="geometry" />
        </mxCell>
        <mxCell id="lb9ZCilv8jvgpDcWReZ2-356" value="B" style="rounded=0;whiteSpace=wrap;html=1;fontSize=17;" vertex="1" parent="1">
          <mxGeometry x="520" y="4230" width="20" height="40" as="geometry" />
        </mxCell>
        <mxCell id="lb9ZCilv8jvgpDcWReZ2-357" value="10" style="text;html=1;strokeColor=none;fillColor=none;align=center;verticalAlign=middle;whiteSpace=wrap;rounded=0;fontSize=17;" vertex="1" parent="1">
          <mxGeometry x="380" y="4210" width="20" height="20" as="geometry" />
        </mxCell>
        <mxCell id="lb9ZCilv8jvgpDcWReZ2-358" value="11" style="text;html=1;strokeColor=none;fillColor=none;align=center;verticalAlign=middle;whiteSpace=wrap;rounded=0;fontSize=17;" vertex="1" parent="1">
          <mxGeometry x="400" y="4210" width="20" height="20" as="geometry" />
        </mxCell>
        <mxCell id="lb9ZCilv8jvgpDcWReZ2-359" value="12" style="text;html=1;strokeColor=none;fillColor=none;align=center;verticalAlign=middle;whiteSpace=wrap;rounded=0;fontSize=17;" vertex="1" parent="1">
          <mxGeometry x="420" y="4210" width="20" height="20" as="geometry" />
        </mxCell>
        <mxCell id="lb9ZCilv8jvgpDcWReZ2-360" value="13" style="text;html=1;strokeColor=none;fillColor=none;align=center;verticalAlign=middle;whiteSpace=wrap;rounded=0;fontSize=17;" vertex="1" parent="1">
          <mxGeometry x="440" y="4210" width="20" height="20" as="geometry" />
        </mxCell>
        <mxCell id="lb9ZCilv8jvgpDcWReZ2-361" value="14" style="text;html=1;strokeColor=none;fillColor=none;align=center;verticalAlign=middle;whiteSpace=wrap;rounded=0;fontSize=17;" vertex="1" parent="1">
          <mxGeometry x="460" y="4210" width="20" height="20" as="geometry" />
        </mxCell>
        <mxCell id="lb9ZCilv8jvgpDcWReZ2-362" value="15" style="text;html=1;strokeColor=none;fillColor=none;align=center;verticalAlign=middle;whiteSpace=wrap;rounded=0;fontSize=17;" vertex="1" parent="1">
          <mxGeometry x="480" y="4210" width="20" height="20" as="geometry" />
        </mxCell>
        <mxCell id="lb9ZCilv8jvgpDcWReZ2-363" value="16" style="text;html=1;strokeColor=none;fillColor=none;align=center;verticalAlign=middle;whiteSpace=wrap;rounded=0;fontSize=17;" vertex="1" parent="1">
          <mxGeometry x="500" y="4210" width="20" height="20" as="geometry" />
        </mxCell>
        <mxCell id="lb9ZCilv8jvgpDcWReZ2-364" value="17" style="text;html=1;strokeColor=none;fillColor=none;align=center;verticalAlign=middle;whiteSpace=wrap;rounded=0;fontSize=17;" vertex="1" parent="1">
          <mxGeometry x="520" y="4210" width="20" height="20" as="geometry" />
        </mxCell>
        <mxCell id="lb9ZCilv8jvgpDcWReZ2-365" value="B" style="rounded=0;whiteSpace=wrap;html=1;fontSize=17;" vertex="1" parent="1">
          <mxGeometry x="540" y="4230" width="20" height="40" as="geometry" />
        </mxCell>
        <mxCell id="lb9ZCilv8jvgpDcWReZ2-366" value="18" style="text;html=1;strokeColor=none;fillColor=none;align=center;verticalAlign=middle;whiteSpace=wrap;rounded=0;fontSize=17;" vertex="1" parent="1">
          <mxGeometry x="540" y="4210" width="20" height="20" as="geometry" />
        </mxCell>
        <mxCell id="lb9ZCilv8jvgpDcWReZ2-387" value="" style="endArrow=classic;html=1;rounded=0;strokeColor=#808080;dashed=1;jumpStyle=none;startArrow=oval;startFill=1;sketch=0;fontSize=17;" edge="1" parent="1">
          <mxGeometry width="50" height="50" relative="1" as="geometry">
            <mxPoint x="1539" y="5667.65" as="sourcePoint" />
            <mxPoint x="1540" y="5070" as="targetPoint" />
          </mxGeometry>
        </mxCell>
        <mxCell id="lb9ZCilv8jvgpDcWReZ2-392" value="" style="endArrow=none;dashed=1;html=1;dashPattern=1 3;strokeWidth=2;rounded=0;fontSize=17;" edge="1" parent="1">
          <mxGeometry width="50" height="50" relative="1" as="geometry">
            <mxPoint x="2620" y="5820" as="sourcePoint" />
            <mxPoint x="2620" y="4670" as="targetPoint" />
          </mxGeometry>
        </mxCell>
        <mxCell id="lb9ZCilv8jvgpDcWReZ2-414" value="" style="endArrow=classic;startArrow=classic;html=1;rounded=0;sketch=0;strokeColor=#333333;jumpStyle=none;fontSize=17;" edge="1" parent="1">
          <mxGeometry width="50" height="50" relative="1" as="geometry">
            <mxPoint x="200" y="5910" as="sourcePoint" />
            <mxPoint x="480" y="5910" as="targetPoint" />
          </mxGeometry>
        </mxCell>
        <mxCell id="lb9ZCilv8jvgpDcWReZ2-415" value="14" style="text;html=1;strokeColor=none;fillColor=none;align=center;verticalAlign=middle;whiteSpace=wrap;rounded=0;shadow=0;glass=0;sketch=0;fontSize=17;" vertex="1" parent="1">
          <mxGeometry x="200" y="5910" width="270" height="30" as="geometry" />
        </mxCell>
        <mxCell id="lb9ZCilv8jvgpDcWReZ2-416" value="" style="endArrow=none;html=1;rounded=0;sketch=0;strokeColor=#333333;jumpStyle=none;fontSize=17;" edge="1" parent="1">
          <mxGeometry width="50" height="50" relative="1" as="geometry">
            <mxPoint x="480" y="5930" as="sourcePoint" />
            <mxPoint x="480" y="5870" as="targetPoint" />
          </mxGeometry>
        </mxCell>
        <mxCell id="lb9ZCilv8jvgpDcWReZ2-417" value="" style="endArrow=none;html=1;rounded=0;sketch=0;strokeColor=#333333;jumpStyle=none;fontSize=17;" edge="1" parent="1">
          <mxGeometry width="50" height="50" relative="1" as="geometry">
            <mxPoint x="920.23" y="5930" as="sourcePoint" />
            <mxPoint x="920" y="5870" as="targetPoint" />
          </mxGeometry>
        </mxCell>
        <mxCell id="lb9ZCilv8jvgpDcWReZ2-418" value="" style="endArrow=classic;startArrow=classic;html=1;rounded=0;sketch=0;strokeColor=#333333;jumpStyle=none;entryX=1;entryY=0;entryDx=0;entryDy=0;fontSize=17;" edge="1" parent="1" target="lb9ZCilv8jvgpDcWReZ2-419">
          <mxGeometry width="50" height="50" relative="1" as="geometry">
            <mxPoint x="480" y="5910" as="sourcePoint" />
            <mxPoint x="720" y="5910" as="targetPoint" />
          </mxGeometry>
        </mxCell>
        <mxCell id="lb9ZCilv8jvgpDcWReZ2-419" value="2+N" style="text;html=1;strokeColor=none;fillColor=none;align=center;verticalAlign=middle;whiteSpace=wrap;rounded=0;shadow=0;glass=0;sketch=0;fontSize=17;" vertex="1" parent="1">
          <mxGeometry x="479.23" y="5910" width="440.77" height="30" as="geometry" />
        </mxCell>
        <mxCell id="lb9ZCilv8jvgpDcWReZ2-420" value="" style="endArrow=classic;startArrow=classic;html=1;rounded=0;sketch=0;strokeColor=#333333;jumpStyle=none;fontSize=17;entryX=1;entryY=0;entryDx=0;entryDy=0;" edge="1" parent="1" target="lb9ZCilv8jvgpDcWReZ2-421">
          <mxGeometry width="50" height="50" relative="1" as="geometry">
            <mxPoint x="922" y="5910" as="sourcePoint" />
            <mxPoint x="1342" y="5910" as="targetPoint" />
          </mxGeometry>
        </mxCell>
        <mxCell id="lb9ZCilv8jvgpDcWReZ2-421" value="N" style="text;html=1;strokeColor=none;fillColor=none;align=center;verticalAlign=middle;whiteSpace=wrap;rounded=0;shadow=0;glass=0;sketch=0;fontSize=17;" vertex="1" parent="1">
          <mxGeometry x="922" y="5910" width="398" height="30" as="geometry" />
        </mxCell>
        <mxCell id="lb9ZCilv8jvgpDcWReZ2-422" value="" style="endArrow=none;html=1;rounded=0;sketch=0;strokeColor=#333333;jumpStyle=none;fontSize=17;" edge="1" parent="1">
          <mxGeometry width="50" height="50" relative="1" as="geometry">
            <mxPoint x="2498" y="5930" as="sourcePoint" />
            <mxPoint x="2498" y="5870" as="targetPoint" />
          </mxGeometry>
        </mxCell>
        <mxCell id="lb9ZCilv8jvgpDcWReZ2-423" value="" style="endArrow=none;html=1;rounded=0;sketch=0;strokeColor=#333333;jumpStyle=none;fontSize=17;" edge="1" parent="1">
          <mxGeometry width="50" height="50" relative="1" as="geometry">
            <mxPoint x="3260" y="5928.95" as="sourcePoint" />
            <mxPoint x="3260" y="5870.002631578947" as="targetPoint" />
          </mxGeometry>
        </mxCell>
        <mxCell id="lb9ZCilv8jvgpDcWReZ2-424" value="" style="endArrow=classic;startArrow=classic;html=1;rounded=0;sketch=0;strokeColor=#333333;jumpStyle=none;fontSize=17;" edge="1" parent="1">
          <mxGeometry width="50" height="50" relative="1" as="geometry">
            <mxPoint x="2860" y="5909" as="sourcePoint" />
            <mxPoint x="3260" y="5909.17" as="targetPoint" />
          </mxGeometry>
        </mxCell>
        <mxCell id="lb9ZCilv8jvgpDcWReZ2-425" value="N" style="text;html=1;strokeColor=none;fillColor=none;align=center;verticalAlign=middle;whiteSpace=wrap;rounded=0;shadow=0;glass=0;sketch=0;fontSize=17;" vertex="1" parent="1">
          <mxGeometry x="2890" y="5910" width="340" height="30" as="geometry" />
        </mxCell>
        <mxCell id="lb9ZCilv8jvgpDcWReZ2-426" value="" style="endArrow=none;html=1;rounded=0;sketch=0;strokeColor=#333333;jumpStyle=none;fontSize=17;" edge="1" parent="1">
          <mxGeometry width="50" height="50" relative="1" as="geometry">
            <mxPoint x="1520.0000000000002" y="5930" as="sourcePoint" />
            <mxPoint x="1520.0000000000002" y="5870" as="targetPoint" />
          </mxGeometry>
        </mxCell>
        <mxCell id="lb9ZCilv8jvgpDcWReZ2-427" value="" style="endArrow=classic;startArrow=classic;html=1;rounded=0;sketch=0;fontSize=17;strokeColor=#333333;jumpStyle=none;entryX=0;entryY=0;entryDx=0;entryDy=0;" edge="1" parent="1">
          <mxGeometry width="50" height="50" relative="1" as="geometry">
            <mxPoint x="1520.57" y="5910" as="sourcePoint" />
            <mxPoint x="1921.34" y="5910" as="targetPoint" />
          </mxGeometry>
        </mxCell>
        <mxCell id="lb9ZCilv8jvgpDcWReZ2-428" value="" style="endArrow=none;html=1;rounded=0;sketch=0;strokeColor=#333333;jumpStyle=none;fontSize=17;" edge="1" parent="1">
          <mxGeometry width="50" height="50" relative="1" as="geometry">
            <mxPoint x="1921.3399999999995" y="5930" as="sourcePoint" />
            <mxPoint x="1921.3399999999995" y="5870" as="targetPoint" />
          </mxGeometry>
        </mxCell>
        <mxCell id="lb9ZCilv8jvgpDcWReZ2-429" value="&lt;font style=&quot;font-size: 17px;&quot;&gt;N&lt;/font&gt;" style="text;html=1;strokeColor=none;fillColor=none;align=center;verticalAlign=middle;whiteSpace=wrap;rounded=0;shadow=0;glass=0;sketch=0;fontSize=17;" vertex="1" parent="1">
          <mxGeometry x="1521.34" y="5910" width="400" height="30" as="geometry" />
        </mxCell>
        <mxCell id="lb9ZCilv8jvgpDcWReZ2-430" value="" style="endArrow=classic;startArrow=classic;html=1;rounded=0;sketch=0;fontSize=17;strokeColor=#333333;jumpStyle=none;" edge="1" parent="1">
          <mxGeometry width="50" height="50" relative="1" as="geometry">
            <mxPoint x="2100" y="5910" as="sourcePoint" />
            <mxPoint x="2500" y="5910" as="targetPoint" />
          </mxGeometry>
        </mxCell>
        <mxCell id="lb9ZCilv8jvgpDcWReZ2-431" value="&lt;font style=&quot;font-size: 17px&quot;&gt;N&lt;/font&gt;" style="text;html=1;strokeColor=none;fillColor=none;align=center;verticalAlign=middle;whiteSpace=wrap;rounded=0;shadow=0;glass=0;sketch=0;fontSize=17;" vertex="1" parent="1">
          <mxGeometry x="2098" y="5919" width="392" height="30" as="geometry" />
        </mxCell>
        <mxCell id="lb9ZCilv8jvgpDcWReZ2-432" value="" style="endArrow=none;dashed=1;html=1;dashPattern=1 3;strokeWidth=2;rounded=0;entryX=0;entryY=1;entryDx=0;entryDy=0;strokeColor=#B3B3B3;fontSize=17;" edge="1" parent="1" target="lb9ZCilv8jvgpDcWReZ2-136">
          <mxGeometry width="50" height="50" relative="1" as="geometry">
            <mxPoint x="880" y="5420" as="sourcePoint" />
            <mxPoint x="872" y="4670" as="targetPoint" />
          </mxGeometry>
        </mxCell>
        <mxCell id="lb9ZCilv8jvgpDcWReZ2-435" value="" style="endArrow=none;dashed=1;html=1;dashPattern=1 3;strokeWidth=2;rounded=0;entryX=0;entryY=1;entryDx=0;entryDy=0;strokeColor=#B3B3B3;fontSize=17;" edge="1" parent="1" target="lb9ZCilv8jvgpDcWReZ2-138">
          <mxGeometry width="50" height="50" relative="1" as="geometry">
            <mxPoint x="920" y="5670" as="sourcePoint" />
            <mxPoint x="910.75" y="4670" as="targetPoint" />
          </mxGeometry>
        </mxCell>
        <mxCell id="lb9ZCilv8jvgpDcWReZ2-702" value="" style="endArrow=none;dashed=1;html=1;dashPattern=1 3;strokeWidth=2;rounded=0;entryX=1;entryY=1;entryDx=0;entryDy=0;strokeColor=#B3B3B3;fontSize=17;" edge="1" parent="1" target="lb9ZCilv8jvgpDcWReZ2-138">
          <mxGeometry width="50" height="50" relative="1" as="geometry">
            <mxPoint x="960" y="5590" as="sourcePoint" />
            <mxPoint x="950.33" y="4670" as="targetPoint" />
          </mxGeometry>
        </mxCell>
        <mxCell id="lb9ZCilv8jvgpDcWReZ2-709" value="15" style="text;html=1;strokeColor=none;fillColor=none;align=center;verticalAlign=middle;whiteSpace=wrap;rounded=0;fontSize=17;" vertex="1" parent="1">
          <mxGeometry x="2098" y="5650" width="402" height="20" as="geometry" />
        </mxCell>
        <mxCell id="lb9ZCilv8jvgpDcWReZ2-710" value="" style="endArrow=classic;html=1;rounded=0;strokeColor=#808080;dashed=1;jumpStyle=none;startArrow=oval;startFill=1;sketch=0;fontSize=17;exitX=1;exitY=0;exitDx=0;exitDy=0;" edge="1" parent="1" source="lb9ZCilv8jvgpDcWReZ2-173">
          <mxGeometry width="50" height="50" relative="1" as="geometry">
            <mxPoint x="1312" y="5670" as="sourcePoint" />
            <mxPoint x="1320" y="4430" as="targetPoint" />
          </mxGeometry>
        </mxCell>
        <mxCell id="lb9ZCilv8jvgpDcWReZ2-711" value="" style="endArrow=none;dashed=1;html=1;dashPattern=1 3;strokeWidth=2;rounded=0;entryX=1;entryY=1;entryDx=0;entryDy=0;strokeColor=#B3B3B3;exitX=0;exitY=0.75;exitDx=0;exitDy=0;fontSize=17;" edge="1" parent="1" source="lb9ZCilv8jvgpDcWReZ2-200">
          <mxGeometry width="50" height="50" relative="1" as="geometry">
            <mxPoint x="1440" y="5606" as="sourcePoint" />
            <mxPoint x="1440.33" y="4676" as="targetPoint" />
          </mxGeometry>
        </mxCell>
        <mxCell id="lb9ZCilv8jvgpDcWReZ2-712" value="" style="endArrow=none;dashed=1;html=1;dashPattern=1 3;strokeWidth=2;rounded=0;entryX=1;entryY=1;entryDx=0;entryDy=0;strokeColor=#B3B3B3;exitX=0;exitY=0.75;exitDx=0;exitDy=0;fontSize=17;" edge="1" parent="1" source="lb9ZCilv8jvgpDcWReZ2-264">
          <mxGeometry width="50" height="50" relative="1" as="geometry">
            <mxPoint x="1518.33" y="5600" as="sourcePoint" />
            <mxPoint x="1518.6599999999999" y="4670" as="targetPoint" />
          </mxGeometry>
        </mxCell>
        <mxCell id="lb9ZCilv8jvgpDcWReZ2-713" value="" style="endArrow=none;dashed=1;html=1;dashPattern=1 3;strokeWidth=2;rounded=0;entryX=1;entryY=1;entryDx=0;entryDy=0;strokeColor=#B3B3B3;exitX=0;exitY=1;exitDx=0;exitDy=0;fontSize=17;" edge="1" parent="1" source="lb9ZCilv8jvgpDcWReZ2-214">
          <mxGeometry width="50" height="50" relative="1" as="geometry">
            <mxPoint x="1558.33" y="5600" as="sourcePoint" />
            <mxPoint x="1558.6599999999999" y="4670" as="targetPoint" />
          </mxGeometry>
        </mxCell>
        <mxCell id="lb9ZCilv8jvgpDcWReZ2-714" value="" style="endArrow=none;dashed=1;html=1;dashPattern=1 3;strokeWidth=2;rounded=0;strokeColor=#B3B3B3;exitX=0;exitY=1;exitDx=0;exitDy=0;fontSize=17;" edge="1" parent="1" source="lb9ZCilv8jvgpDcWReZ2-240">
          <mxGeometry width="50" height="50" relative="1" as="geometry">
            <mxPoint x="1569.9999999999995" y="4720" as="sourcePoint" />
            <mxPoint x="1600" y="4670" as="targetPoint" />
          </mxGeometry>
        </mxCell>
        <mxCell id="lb9ZCilv8jvgpDcWReZ2-715" value="" style="endArrow=none;dashed=1;html=1;dashPattern=1 3;strokeWidth=2;rounded=0;strokeColor=#B3B3B3;exitX=0;exitY=0.75;exitDx=0;exitDy=0;entryX=1;entryY=1;entryDx=0;entryDy=0;fontSize=17;" edge="1" parent="1" source="lb9ZCilv8jvgpDcWReZ2-244" target="lb9ZCilv8jvgpDcWReZ2-253">
          <mxGeometry width="50" height="50" relative="1" as="geometry">
            <mxPoint x="1608" y="4800" as="sourcePoint" />
            <mxPoint x="1609.9999999999995" y="4680" as="targetPoint" />
          </mxGeometry>
        </mxCell>
        <mxCell id="lb9ZCilv8jvgpDcWReZ2-716" value="" style="endArrow=classic;html=1;rounded=0;strokeColor=#808080;dashed=1;jumpStyle=none;startArrow=oval;startFill=1;sketch=0;fontSize=17;" edge="1" parent="1">
          <mxGeometry width="50" height="50" relative="1" as="geometry">
            <mxPoint x="1916.8200000000002" y="5670" as="sourcePoint" />
            <mxPoint x="1917" y="4430" as="targetPoint" />
          </mxGeometry>
        </mxCell>
        <mxCell id="lb9ZCilv8jvgpDcWReZ2-718" value="" style="endArrow=none;dashed=1;html=1;dashPattern=1 3;strokeWidth=2;rounded=0;strokeColor=#B3B3B3;entryX=1;entryY=1;entryDx=0;entryDy=0;fontSize=17;" edge="1" parent="1">
          <mxGeometry width="50" height="50" relative="1" as="geometry">
            <mxPoint x="2040" y="5720" as="sourcePoint" />
            <mxPoint x="2037.9999999999995" y="4670" as="targetPoint" />
          </mxGeometry>
        </mxCell>
        <mxCell id="lb9ZCilv8jvgpDcWReZ2-719" value="P*L" style="rounded=0;whiteSpace=wrap;html=1;fontSize=17;" vertex="1" parent="1">
          <mxGeometry x="2038" y="5750" width="440" height="40" as="geometry" />
        </mxCell>
        <mxCell id="lb9ZCilv8jvgpDcWReZ2-720" value="14" style="text;html=1;strokeColor=none;fillColor=none;align=center;verticalAlign=middle;whiteSpace=wrap;rounded=0;fontSize=17;" vertex="1" parent="1">
          <mxGeometry x="2038" y="5730" width="432" height="20" as="geometry" />
        </mxCell>
        <mxCell id="lb9ZCilv8jvgpDcWReZ2-721" value="" style="endArrow=classic;html=1;rounded=0;strokeColor=#808080;dashed=1;jumpStyle=none;startArrow=oval;startFill=1;sketch=0;fontSize=17;" edge="1" parent="1">
          <mxGeometry width="50" height="50" relative="1" as="geometry">
            <mxPoint x="2096.5699999999997" y="5747.65" as="sourcePoint" />
            <mxPoint x="2097" y="5710" as="targetPoint" />
          </mxGeometry>
        </mxCell>
        <mxCell id="lb9ZCilv8jvgpDcWReZ2-722" value="W-P*L" style="rounded=0;whiteSpace=wrap;html=1;fontSize=17;" vertex="1" parent="1">
          <mxGeometry x="2098" y="5670" width="400" height="40" as="geometry" />
        </mxCell>
        <mxCell id="lb9ZCilv8jvgpDcWReZ2-723" value="" style="endArrow=classic;html=1;rounded=0;strokeColor=#808080;dashed=1;jumpStyle=none;startArrow=oval;startFill=1;sketch=0;fontSize=17;" edge="1" parent="1">
          <mxGeometry width="50" height="50" relative="1" as="geometry">
            <mxPoint x="2116.5699999999997" y="5667.65" as="sourcePoint" />
            <mxPoint x="2117" y="5310" as="targetPoint" />
          </mxGeometry>
        </mxCell>
        <mxCell id="lb9ZCilv8jvgpDcWReZ2-724" value="W-P*L" style="rounded=0;whiteSpace=wrap;html=1;fontSize=17;" vertex="1" parent="1">
          <mxGeometry x="2118" y="5270" width="400" height="40" as="geometry" />
        </mxCell>
        <mxCell id="lb9ZCilv8jvgpDcWReZ2-727" value="ЗАНЯТ" style="rounded=0;whiteSpace=wrap;html=1;strokeColor=none;shadow=0;sketch=0;fillColor=#f8cecc;glass=0;fontSize=17;" vertex="1" parent="1">
          <mxGeometry x="2518" y="5270" width="562" height="40" as="geometry" />
        </mxCell>
        <mxCell id="lb9ZCilv8jvgpDcWReZ2-728" value="Y/(W-P*L)" style="rounded=0;whiteSpace=wrap;html=1;fontSize=17;" vertex="1" parent="1">
          <mxGeometry x="2618" y="5830" width="460" height="40" as="geometry" />
        </mxCell>
        <mxCell id="lb9ZCilv8jvgpDcWReZ2-729" value="" style="endArrow=classic;html=1;rounded=0;strokeColor=#808080;dashed=1;jumpStyle=none;startArrow=oval;startFill=1;sketch=0;fontSize=17;" edge="1" parent="1">
          <mxGeometry width="50" height="50" relative="1" as="geometry">
            <mxPoint x="2698.9999999999995" y="5827.65" as="sourcePoint" />
            <mxPoint x="2699.8299999999995" y="5710.00294117647" as="targetPoint" />
            <Array as="points">
              <mxPoint x="2699.43" y="5770" />
            </Array>
          </mxGeometry>
        </mxCell>
        <mxCell id="lb9ZCilv8jvgpDcWReZ2-731" value="S = U*Z + X/(V-Q) + Y/(W-P*L)" style="rounded=0;whiteSpace=wrap;html=1;fontSize=17;" vertex="1" parent="1">
          <mxGeometry x="2698" y="5670" width="400" height="40" as="geometry" />
        </mxCell>
        <mxCell id="lb9ZCilv8jvgpDcWReZ2-732" value="" style="endArrow=classic;html=1;rounded=0;strokeColor=#808080;dashed=1;jumpStyle=none;startArrow=oval;startFill=1;sketch=0;fontSize=17;exitX=0.05;exitY=-0.1;exitDx=0;exitDy=0;exitPerimeter=0;" edge="1" parent="1" source="lb9ZCilv8jvgpDcWReZ2-731">
          <mxGeometry width="50" height="50" relative="1" as="geometry">
            <mxPoint x="2728" y="5667.65" as="sourcePoint" />
            <mxPoint x="2718" y="5150" as="targetPoint" />
          </mxGeometry>
        </mxCell>
        <mxCell id="lb9ZCilv8jvgpDcWReZ2-734" value="S" style="rounded=0;whiteSpace=wrap;html=1;fontSize=17;" vertex="1" parent="1">
          <mxGeometry x="2720" y="5110" width="400" height="40" as="geometry" />
        </mxCell>
        <mxCell id="lb9ZCilv8jvgpDcWReZ2-736" value="" style="endArrow=classic;html=1;rounded=0;strokeColor=#808080;dashed=1;jumpStyle=none;startArrow=oval;startFill=1;sketch=0;fontSize=17;exitX=0.044;exitY=0.018;exitDx=0;exitDy=0;exitPerimeter=0;" edge="1" parent="1" source="lb9ZCilv8jvgpDcWReZ2-734">
          <mxGeometry width="50" height="50" relative="1" as="geometry">
            <mxPoint x="2730" y="5110" as="sourcePoint" />
            <mxPoint x="2740" y="4430" as="targetPoint" />
          </mxGeometry>
        </mxCell>
        <mxCell id="lb9ZCilv8jvgpDcWReZ2-737" value="K" style="rounded=0;whiteSpace=wrap;html=1;fontSize=17;" vertex="1" parent="1">
          <mxGeometry x="2740" y="4390" width="20" height="40" as="geometry" />
        </mxCell>
        <mxCell id="lb9ZCilv8jvgpDcWReZ2-738" value="" style="endArrow=none;dashed=1;html=1;dashPattern=1 3;strokeWidth=2;rounded=0;strokeColor=#B3B3B3;entryX=1;entryY=1;entryDx=0;entryDy=0;fontSize=17;" edge="1" parent="1">
          <mxGeometry width="50" height="50" relative="1" as="geometry">
            <mxPoint x="2096" y="5670" as="sourcePoint" />
            <mxPoint x="2096" y="4670" as="targetPoint" />
          </mxGeometry>
        </mxCell>
        <mxCell id="lb9ZCilv8jvgpDcWReZ2-739" value="" style="endArrow=none;dashed=1;html=1;dashPattern=1 3;strokeWidth=2;rounded=0;strokeColor=#B3B3B3;entryX=1;entryY=1;entryDx=0;entryDy=0;fontSize=17;" edge="1" parent="1">
          <mxGeometry width="50" height="50" relative="1" as="geometry">
            <mxPoint x="2859" y="4710" as="sourcePoint" />
            <mxPoint x="2858.57" y="4670" as="targetPoint" />
          </mxGeometry>
        </mxCell>
        <mxCell id="lb9ZCilv8jvgpDcWReZ2-741" value="" style="endArrow=classic;html=1;rounded=0;strokeColor=#808080;dashed=1;jumpStyle=none;startArrow=oval;startFill=1;sketch=0;fontSize=17;" edge="1" parent="1">
          <mxGeometry width="50" height="50" relative="1" as="geometry">
            <mxPoint x="2498.000000000001" y="5670" as="sourcePoint" />
            <mxPoint x="2500" y="4430" as="targetPoint" />
          </mxGeometry>
        </mxCell>
        <mxCell id="lb9ZCilv8jvgpDcWReZ2-742" value="" style="endArrow=none;dashed=1;html=1;dashPattern=1 3;strokeWidth=2;rounded=0;fontSize=17;" edge="1" parent="1">
          <mxGeometry width="50" height="50" relative="1" as="geometry">
            <mxPoint x="2700" y="5670" as="sourcePoint" />
            <mxPoint x="2700" y="4670" as="targetPoint" />
          </mxGeometry>
        </mxCell>
        <mxCell id="lb9ZCilv8jvgpDcWReZ2-745" value="" style="endArrow=none;html=1;rounded=0;sketch=0;strokeColor=#333333;jumpStyle=none;fontSize=17;" edge="1" parent="1">
          <mxGeometry width="50" height="50" relative="1" as="geometry">
            <mxPoint x="1320" y="5930" as="sourcePoint" />
            <mxPoint x="1320" y="5870" as="targetPoint" />
          </mxGeometry>
        </mxCell>
        <mxCell id="lb9ZCilv8jvgpDcWReZ2-746" value="" style="endArrow=classic;startArrow=classic;html=1;rounded=0;sketch=0;strokeColor=#333333;jumpStyle=none;fontSize=17;" edge="1" parent="1">
          <mxGeometry width="50" height="50" relative="1" as="geometry">
            <mxPoint x="1320" y="5910" as="sourcePoint" />
            <mxPoint x="1520" y="5910" as="targetPoint" />
          </mxGeometry>
        </mxCell>
        <mxCell id="lb9ZCilv8jvgpDcWReZ2-747" value="10" style="text;html=1;strokeColor=none;fillColor=none;align=center;verticalAlign=middle;whiteSpace=wrap;rounded=0;shadow=0;glass=0;sketch=0;fontSize=17;" vertex="1" parent="1">
          <mxGeometry x="1320" y="5919" width="200" height="30" as="geometry" />
        </mxCell>
        <mxCell id="lb9ZCilv8jvgpDcWReZ2-748" value="" style="endArrow=none;html=1;rounded=0;sketch=0;strokeColor=#333333;jumpStyle=none;fontSize=17;" edge="1" parent="1">
          <mxGeometry width="50" height="50" relative="1" as="geometry">
            <mxPoint x="2096.8199999999993" y="5930" as="sourcePoint" />
            <mxPoint x="2096.8199999999993" y="5870" as="targetPoint" />
          </mxGeometry>
        </mxCell>
        <mxCell id="lb9ZCilv8jvgpDcWReZ2-749" value="" style="endArrow=classic;startArrow=classic;html=1;rounded=0;fontSize=17;" edge="1" parent="1">
          <mxGeometry width="50" height="50" relative="1" as="geometry">
            <mxPoint x="1918" y="5909.23" as="sourcePoint" />
            <mxPoint x="2098" y="5908.82" as="targetPoint" />
          </mxGeometry>
        </mxCell>
        <mxCell id="lb9ZCilv8jvgpDcWReZ2-750" value="&lt;font style=&quot;font-size: 17px&quot;&gt;9&lt;/font&gt;" style="text;html=1;strokeColor=none;fillColor=none;align=center;verticalAlign=middle;whiteSpace=wrap;rounded=0;shadow=0;glass=0;sketch=0;fontSize=17;" vertex="1" parent="1">
          <mxGeometry x="1930" y="5910" width="160" height="30" as="geometry" />
        </mxCell>
        <mxCell id="lb9ZCilv8jvgpDcWReZ2-751" value="" style="endArrow=none;html=1;rounded=0;sketch=0;strokeColor=#333333;jumpStyle=none;fontSize=17;" edge="1" parent="1">
          <mxGeometry width="50" height="50" relative="1" as="geometry">
            <mxPoint x="2860" y="5930" as="sourcePoint" />
            <mxPoint x="2860" y="5870" as="targetPoint" />
          </mxGeometry>
        </mxCell>
        <mxCell id="lb9ZCilv8jvgpDcWReZ2-752" value="" style="endArrow=classic;startArrow=classic;html=1;rounded=0;fontSize=17;" edge="1" parent="1">
          <mxGeometry width="50" height="50" relative="1" as="geometry">
            <mxPoint x="2500" y="5910" as="sourcePoint" />
            <mxPoint x="2860" y="5910" as="targetPoint" />
          </mxGeometry>
        </mxCell>
        <mxCell id="lb9ZCilv8jvgpDcWReZ2-753" value="18" style="text;html=1;strokeColor=none;fillColor=none;align=center;verticalAlign=middle;whiteSpace=wrap;rounded=0;shadow=0;glass=0;sketch=0;fontSize=17;" vertex="1" parent="1">
          <mxGeometry x="2510" y="5910" width="340" height="30" as="geometry" />
        </mxCell>
      </root>
    </mxGraphModel>
  </diagram>
</mxfile>
